<svg width="current" height="current" viewBox="0 0 24 24" fill="none" xmlns="http://www.w3.org/2000/svg">
    <path d="M12 22.498c7 0 10.498-4.7 10.498-10.5C22.498 6.202 19 1.5 11.998 1.5 4.998 1.5 1.5 6.201 1.5 12c0 5.797 3.498 10.498 10.5 10.498z" fill="url(#uncsfz18ia)"/>
    <path d="M12 22.498c7 0 10.498-4.7 10.498-10.5C22.498 6.202 19 1.5 11.998 1.5 4.998 1.5 1.5 6.201 1.5 12c0 5.797 3.498 10.498 10.5 10.498z" fill="url(#0d3zcig9nb)"/>
    <path d="M12 22.498c7 0 10.498-4.7 10.498-10.5C22.498 6.202 19 1.5 11.998 1.5 4.998 1.5 1.5 6.201 1.5 12c0 5.797 3.498 10.498 10.5 10.498z" fill="url(#5e6kn1in6c)"/>
    <path d="M12 22.498c7 0 10.498-4.7 10.498-10.5C22.498 6.202 19 1.5 11.998 1.5 4.998 1.5 1.5 6.201 1.5 12c0 5.797 3.498 10.498 10.5 10.498z" fill="url(#ud5ow1o53d)" fill-opacity=".6"/>
    <path d="M12 22.498c7 0 10.498-4.7 10.498-10.5C22.498 6.202 19 1.5 11.998 1.5 4.998 1.5 1.5 6.201 1.5 12c0 5.797 3.498 10.498 10.5 10.498z" fill="url(#lmwr8i9d6e)"/>
    <path d="M12 22.498c7 0 10.498-4.7 10.498-10.5C22.498 6.202 19 1.5 11.998 1.5 4.998 1.5 1.5 6.201 1.5 12c0 5.797 3.498 10.498 10.5 10.498z" fill="url(#od9qibhauf)"/>
    <path d="M12 22.498c7 0 10.498-4.7 10.498-10.5C22.498 6.202 19 1.5 11.998 1.5 4.998 1.5 1.5 6.201 1.5 12c0 5.797 3.498 10.498 10.5 10.498z" fill="url(#fb674sd8yg)"/>
    <path d="M12 22.498c7 0 10.498-4.7 10.498-10.5C22.498 6.202 19 1.5 11.998 1.5 4.998 1.5 1.5 6.201 1.5 12c0 5.797 3.498 10.498 10.5 10.498z" fill="url(#77wpwlyufh)"/>
    <path d="M6.75 13.5a3.75 3.75 0 1 0 0-7.5 3.75 3.75 0 0 0 0 7.5z" fill="url(#vbdrfe7zti)"/>
    <path d="M14.625 13.5a3.375 3.375 0 1 0 0-6.75 3.375 3.375 0 0 0 0 6.75z" fill="url(#sn59ootyfj)"/>
    <path d="M7.875 12a3.375 3.375 0 1 0 0-6.75 3.375 3.375 0 0 0 0 6.75zm8.25 0a3.375 3.375 0 1 0 0-6.75 3.375 3.375 0 0 0 0 6.75z" fill="#fff"/>
    <path d="M9 10.5a1.5 1.5 0 1 0 0-3 1.5 1.5 0 0 0 0 3z" fill="url(#wz6o548kpk)"/>
    <path d="M15 10.5a1.5 1.5 0 1 0 0-3 1.5 1.5 0 0 0 0 3z" fill="url(#sogelut0rl)"/>
    <path d="M15 16.5a3 3 0 1 0-6 0V18a3 3 0 1 0 6 0v-1.5z" fill="url(#elfx4b8jtm)"/>
    <defs>
        <radialGradient id="uncsfz18ia" cx="0" cy="0" r="1" gradientUnits="userSpaceOnUse" gradientTransform="rotate(132.839 8.09 7.549) scale(28.1275)">
            <stop stop-color="#FFF478"/>
            <stop offset=".475" stop-color="#FFB02E"/>
            <stop offset="1" stop-color="#F70A8D"/>
        </radialGradient>
        <radialGradient id="0d3zcig9nb" cx="0" cy="0" r="1" gradientUnits="userSpaceOnUse" gradientTransform="rotate(131.878 8.055 7.645) scale(29.2115)">
            <stop stop-color="#FFF478"/>
            <stop offset=".475" stop-color="#FFB02E"/>
            <stop offset="1" stop-color="#F70A8D"/>
        </radialGradient>
        <radialGradient id="5e6kn1in6c" cx="0" cy="0" r="1" gradientUnits="userSpaceOnUse" gradientTransform="matrix(-2.62501 13.12497 -16.81068 -3.36216 12 9.375)">
            <stop offset=".788" stop-color="#F59639" stop-opacity="0"/>
            <stop offset=".973" stop-color="#FF7DCE"/>
        </radialGradient>
        <radialGradient id="ud5ow1o53d" cx="0" cy="0" r="1" gradientUnits="userSpaceOnUse" gradientTransform="rotate(135 4.575 8.046) scale(30.7591)">
            <stop offset=".315" stop-opacity="0"/>
            <stop offset="1"/>
        </radialGradient>
        <radialGradient id="lmwr8i9d6e" cx="0" cy="0" r="1" gradientUnits="userSpaceOnUse" gradientTransform="matrix(4.5 20.625 -20.625 4.5 12 12.75)">
            <stop offset=".508" stop-color="#7D6133" stop-opacity="0"/>
            <stop offset="1" stop-color="#715B32"/>
        </radialGradient>
        <radialGradient id="od9qibhauf" cx="0" cy="0" r="1" gradientUnits="userSpaceOnUse" gradientTransform="rotate(55.713 -5.52 17.895) scale(9.98512 7.23774)">
            <stop stop-color="#FFB849"/>
            <stop offset="1" stop-color="#FFB847" stop-opacity="0"/>
        </radialGradient>
        <radialGradient id="fb674sd8yg" cx="0" cy="0" r="1" gradientUnits="userSpaceOnUse" gradientTransform="rotate(9.866 -70.52 95.82) scale(8.75445)">
            <stop stop-color="#FFA64B"/>
            <stop offset=".9" stop-color="#FFAE46" stop-opacity="0"/>
        </radialGradient>
        <radialGradient id="77wpwlyufh" cx="0" cy="0" r="1" gradientUnits="userSpaceOnUse" gradientTransform="rotate(43.971 -7.37 21.88) scale(44.2897)">
            <stop offset=".185" stop-opacity="0"/>
            <stop offset="1" stop-opacity=".4"/>
        </radialGradient>
        <radialGradient id="vbdrfe7zti" cx="0" cy="0" r="1" gradientUnits="userSpaceOnUse" gradientTransform="rotate(135 3.418 5.419) scale(7.30677 3.78174)">
            <stop stop-color="#392108"/>
            <stop offset="1" stop-color="#C87928" stop-opacity="0"/>
        </radialGradient>
        <radialGradient id="sn59ootyfj" cx="0" cy="0" r="1" gradientUnits="userSpaceOnUse" gradientTransform="rotate(135 7.072 7.323) scale(6.0988 3.44287)">
            <stop stop-color="#392108"/>
            <stop offset="1" stop-color="#C87928" stop-opacity="0"/>
        </radialGradient>
        <radialGradient id="elfx4b8jtm" cx="0" cy="0" r="1" gradientUnits="userSpaceOnUse" gradientTransform="matrix(0 -9.16665 7.33333 0 12 22.666)">
            <stop stop-color="#F70A8D"/>
            <stop offset="1" stop-color="#89029C"/>
        </radialGradient>
        <linearGradient id="wz6o548kpk" x1="15.461" y1="7.5" x2="14.945" y2="10.523" gradientUnits="userSpaceOnUse">
            <stop stop-color="#553B3E"/>
            <stop offset="1" stop-color="#3D2432"/>
        </linearGradient>
        <linearGradient id="sogelut0rl" x1="15.461" y1="7.5" x2="14.945" y2="10.523" gradientUnits="userSpaceOnUse">
            <stop stop-color="#553B3E"/>
            <stop offset="1" stop-color="#3D2432"/>
        </linearGradient>
    </defs>
</svg>
