<svg width="current" height="current" viewBox="0 0 24 24" fill="none" xmlns="http://www.w3.org/2000/svg">
    <path d="M11.413 21.9a1.3 1.3 0 0 0 1.282-.015c2.688-1.536 7.358-5.072 9.191-9.664 2.693-5.98-3.628-10.753-7.996-7.32-.456.359-1.03.769-1.423 1.157-.178.175-.493.193-.678.025-.517-.472-1.328-1.077-1.849-1.429-3.723-2.52-10.5.802-7.61 7.89 1.06 3.182 6.106 7.695 9.083 9.357z" fill="url(#mo6p1fi20a)"/>
    <path d="M11.413 21.9a1.3 1.3 0 0 0 1.282-.015c2.688-1.536 7.358-5.072 9.191-9.664 2.693-5.98-3.628-10.753-7.996-7.32-.456.359-1.03.769-1.423 1.157-.178.175-.493.193-.678.025-.517-.472-1.328-1.077-1.849-1.429-3.723-2.52-10.5.802-7.61 7.89 1.06 3.182 6.106 7.695 9.083 9.357z" fill="url(#agbrfmeoub)"/>
    <path d="M11.413 21.9a1.3 1.3 0 0 0 1.282-.015c2.688-1.536 7.358-5.072 9.191-9.664 2.693-5.98-3.628-10.753-7.996-7.32-.456.359-1.03.769-1.423 1.157-.178.175-.493.193-.678.025-.517-.472-1.328-1.077-1.849-1.429-3.723-2.52-10.5.802-7.61 7.89 1.06 3.182 6.106 7.695 9.083 9.357z" fill="url(#284nb05jkc)"/>
    <path d="M11.413 21.9a1.3 1.3 0 0 0 1.282-.015c2.688-1.536 7.358-5.072 9.191-9.664 2.693-5.98-3.628-10.753-7.996-7.32-.456.359-1.03.769-1.423 1.157-.178.175-.493.193-.678.025-.517-.472-1.328-1.077-1.849-1.429-3.723-2.52-10.5.802-7.61 7.89 1.06 3.182 6.106 7.695 9.083 9.357z" fill="url(#0g5g2azgbd)"/>
    <path d="M11.413 21.9a1.3 1.3 0 0 0 1.282-.015c2.688-1.536 7.358-5.072 9.191-9.664 2.693-5.98-3.628-10.753-7.996-7.32-.456.359-1.03.769-1.423 1.157-.178.175-.493.193-.678.025-.517-.472-1.328-1.077-1.849-1.429-3.723-2.52-10.5.802-7.61 7.89 1.06 3.182 6.106 7.695 9.083 9.357z" fill="url(#z557375lbe)"/>
    <path d="M11.413 21.9a1.3 1.3 0 0 0 1.282-.015c2.688-1.536 7.358-5.072 9.191-9.664 2.693-5.98-3.628-10.753-7.996-7.32-.456.359-1.03.769-1.423 1.157-.178.175-.493.193-.678.025-.517-.472-1.328-1.077-1.849-1.429-3.723-2.52-10.5.802-7.61 7.89 1.06 3.182 6.106 7.695 9.083 9.357z" fill="url(#qyvh0avlof)"/>
    <path d="M11.413 21.9a1.3 1.3 0 0 0 1.282-.015c2.688-1.536 7.358-5.072 9.191-9.664 2.693-5.98-3.628-10.753-7.996-7.32-.456.359-1.03.769-1.423 1.157-.178.175-.493.193-.678.025-.517-.472-1.328-1.077-1.849-1.429-3.723-2.52-10.5.802-7.61 7.89 1.06 3.182 6.106 7.695 9.083 9.357z" fill="url(#i8h65aekkg)" fill-opacity=".6"/>
    <g filter="url(#1jbearbswh)">
        <path d="M11.931 7.905v5.117c0 .679.822 1 1.245.47 1.309-1.642 2.365-3.638 1.187-5.268-.452-.626-1.317-1.026-2.025-.899-.264.047-.407.311-.407.58z" fill="#FA1C56"/>
    </g>
    <g filter="url(#2r5f90xwyi)">
        <path d="M20.432 10.523c1.325-1.289 1.533-3.224.465-4.323-1.068-1.099-3.009-.945-4.334.343-1.325 1.288-1.533 3.223-.465 4.322 1.068 1.1 3.009.946 4.334-.342z" fill="url(#3o7nntkwxj)"/>
    </g>
    <g filter="url(#i2lybl6zqk)">
        <path d="M17.561 4.815c.696.088 1.275.04 1.294-.106.018-.147-.531-.336-1.227-.424-.696-.087-1.275-.04-1.293.107-.018.146.53.336 1.226.423z" fill="#FF7383"/>
    </g>
    <g filter="url(#sd6g5gcb0l)">
        <path d="M7.044 4.726c.63-.007 1.138-.097 1.137-.2-.001-.103-.512-.18-1.141-.173-.63.008-1.139.097-1.137.2 0 .104.512.181 1.141.173z" fill="#FF93BA" fill-opacity=".5"/>
    </g>
    <g filter="url(#efn7m77bem)">
        <path d="m11.134 7.471.234 7.688C6.212 10.143 5.22 6.621 7.196 5.83c1.875-.75 3.375.47 3.938 1.641z" fill="url(#gevvhhartn)"/>
    </g>
    <g filter="url(#h2zd7ynlvo)">
        <path d="M10.759 7.021a.961.961 0 0 1-.844-.862c.36.375.713.407.844.375v.487z" fill="#FF7383"/>
    </g>
    <defs>
        <radialGradient id="mo6p1fi20a" cx="0" cy="0" r="1" gradientUnits="userSpaceOnUse" gradientTransform="matrix(0 17.2384 -18.3016 0 11.912 4.225)">
            <stop stop-color="#FC0000"/>
            <stop offset=".528" stop-color="#FF3B79"/>
            <stop offset="1" stop-color="#F724B3"/>
        </radialGradient>
        <radialGradient id="agbrfmeoub" cx="0" cy="0" r="1" gradientUnits="userSpaceOnUse" gradientTransform="rotate(134.402 6.843 7.89) scale(15.9485 29.8731)">
            <stop offset=".798" stop-color="#C82092" stop-opacity="0"/>
            <stop offset=".908" stop-color="#C82092"/>
        </radialGradient>
        <radialGradient id="284nb05jkc" cx="0" cy="0" r="1" gradientUnits="userSpaceOnUse" gradientTransform="rotate(-158.663 8.756 5.258) scale(17.0617 24.1192)">
            <stop offset=".41" stop-color="#B91D43" stop-opacity="0"/>
            <stop offset=".834" stop-color="#B91D43"/>
        </radialGradient>
        <radialGradient id="0g5g2azgbd" cx="0" cy="0" r="1" gradientUnits="userSpaceOnUse" gradientTransform="rotate(90 .654 11.016) scale(14.8494)">
            <stop offset=".671" stop-color="#FF7AF2" stop-opacity="0"/>
            <stop offset=".934" stop-color="#FFBCE6"/>
        </radialGradient>
        <radialGradient id="i8h65aekkg" cx="0" cy="0" r="1" gradientUnits="userSpaceOnUse" gradientTransform="matrix(-12.44842 3.42466 -3.61675 -13.14667 13.76 9.672)">
            <stop offset=".802" stop-color="#FF73A6" stop-opacity="0"/>
            <stop offset="1" stop-color="#FF93BA"/>
        </radialGradient>
        <radialGradient id="3o7nntkwxj" cx="0" cy="0" r="1" gradientUnits="userSpaceOnUse" gradientTransform="matrix(-3.42191 4.2656 -5.67213 -4.55025 20.829 6.136)">
            <stop stop-color="#FF7383"/>
            <stop offset="1" stop-color="#FF7383" stop-opacity="0"/>
        </radialGradient>
        <radialGradient id="gevvhhartn" cx="0" cy="0" r="1" gradientUnits="userSpaceOnUse" gradientTransform="matrix(-6.79685 -6.65806 11.8192 -12.06559 12.259 10.38)">
            <stop stop-color="#FF6274"/>
            <stop offset="1" stop-color="#FF6274" stop-opacity="0"/>
        </radialGradient>
        <filter id="1jbearbswh" x="9.931" y="5.302" width="6.942" height="10.456" filterUnits="userSpaceOnUse" color-interpolation-filters="sRGB">
            <feFlood flood-opacity="0" result="BackgroundImageFix"/>
            <feBlend in="SourceGraphic" in2="BackgroundImageFix" result="shape"/>
            <feGaussianBlur stdDeviation="1" result="effect1_foregroundBlur_202_27948"/>
        </filter>
        <filter id="2r5f90xwyi" x="13.915" y="3.967" width="9.165" height="9.132" filterUnits="userSpaceOnUse" color-interpolation-filters="sRGB">
            <feFlood flood-opacity="0" result="BackgroundImageFix"/>
            <feBlend in="SourceGraphic" in2="BackgroundImageFix" result="shape"/>
            <feGaussianBlur stdDeviation=".75" result="effect1_foregroundBlur_202_27948"/>
        </filter>
        <filter id="i2lybl6zqk" x="14.335" y="2.242" width="6.521" height="4.617" filterUnits="userSpaceOnUse" color-interpolation-filters="sRGB">
            <feFlood flood-opacity="0" result="BackgroundImageFix"/>
            <feBlend in="SourceGraphic" in2="BackgroundImageFix" result="shape"/>
            <feGaussianBlur stdDeviation="1" result="effect1_foregroundBlur_202_27948"/>
        </filter>
        <filter id="sd6g5gcb0l" x="4.403" y="2.852" width="5.278" height="3.375" filterUnits="userSpaceOnUse" color-interpolation-filters="sRGB">
            <feFlood flood-opacity="0" result="BackgroundImageFix"/>
            <feBlend in="SourceGraphic" in2="BackgroundImageFix" result="shape"/>
            <feGaussianBlur stdDeviation=".75" result="effect1_foregroundBlur_202_27948"/>
        </filter>
        <filter id="efn7m77bem" x="3.25" y="2.6" width="11.119" height="15.559" filterUnits="userSpaceOnUse" color-interpolation-filters="sRGB">
            <feFlood flood-opacity="0" result="BackgroundImageFix"/>
            <feBlend in="SourceGraphic" in2="BackgroundImageFix" result="shape"/>
            <feGaussianBlur stdDeviation="1.5" result="effect1_foregroundBlur_202_27948"/>
        </filter>
        <filter id="h2zd7ynlvo" x="8.915" y="5.159" width="2.844" height="2.862" filterUnits="userSpaceOnUse" color-interpolation-filters="sRGB">
            <feFlood flood-opacity="0" result="BackgroundImageFix"/>
            <feBlend in="SourceGraphic" in2="BackgroundImageFix" result="shape"/>
            <feGaussianBlur stdDeviation=".5" result="effect1_foregroundBlur_202_27948"/>
        </filter>
        <linearGradient id="z557375lbe" x1="13.309" y1="12.1" x2="19.318" y2="19.252" gradientUnits="userSpaceOnUse">
            <stop offset=".694" stop-color="#FF7AF2" stop-opacity="0"/>
            <stop offset=".934" stop-color="#FFBCE6"/>
        </linearGradient>
        <linearGradient id="qyvh0avlof" x1="12.564" y1="12.398" x2="5.512" y2="20.344" gradientUnits="userSpaceOnUse">
            <stop offset=".694" stop-color="#FF7AF2" stop-opacity="0"/>
            <stop offset=".934" stop-color="#FFBCE6"/>
        </linearGradient>
    </defs>
</svg>
