<svg width="current" height="current" viewBox="0 0 36 36" fill="none" xmlns="http://www.w3.org/2000/svg">
    <g filter="url(#pjwe6i5ema)">
        <path d="M15.802 4.64a2.716 2.716 0 1 1 5.382.749l-1.035 7.438c.776-2.22 1.567-4.338 2.227-5.805.531-1.384 1.845-2.268 3.48-1.793 1.476.484 2.177 2.153 1.608 3.592-1 2.53-2.39 6.337-3.256 9.67 1.327-.557 2.724-1.718 4.03-2.706 1.713-1.17 3.368-.793 4.263.54a2.82 2.82 0 0 1-.581 3.778L29.2 22.272a32.84 32.84 0 0 0-2.651 2.82 22.66 22.66 0 0 0-1.798 2.448c-.453.706-.938 1.39-1.454 2.052a11.279 11.279 0 0 1-2.592 2.416l-.01-.007a9.413 9.413 0 0 1-5.414 1.702 9.456 9.456 0 0 1-8.314-4.944c-1.452-2.578-1.69-5.242-1.905-7.663a55.48 55.48 0 0 0-.17-1.717 28.191 28.191 0 0 0-.596-4.172l-.85-3.468a2.717 2.717 0 1 1 5.276-1.293l.74 3.012-.467-5.775a2.717 2.717 0 1 1 5.416-.437l.377 4.673 1.013-7.278v-.002z" fill="#FFC23F"/>
        <path d="M15.802 4.64a2.716 2.716 0 1 1 5.382.749l-1.035 7.438c.776-2.22 1.567-4.338 2.227-5.805.531-1.384 1.845-2.268 3.48-1.793 1.476.484 2.177 2.153 1.608 3.592-1 2.53-2.39 6.337-3.256 9.67 1.327-.557 2.724-1.718 4.03-2.706 1.713-1.17 3.368-.793 4.263.54a2.82 2.82 0 0 1-.581 3.778L29.2 22.272a32.84 32.84 0 0 0-2.651 2.82 22.66 22.66 0 0 0-1.798 2.448c-.453.706-.938 1.39-1.454 2.052a11.279 11.279 0 0 1-2.592 2.416l-.01-.007a9.413 9.413 0 0 1-5.414 1.702 9.456 9.456 0 0 1-8.314-4.944c-1.452-2.578-1.69-5.242-1.905-7.663a55.48 55.48 0 0 0-.17-1.717 28.191 28.191 0 0 0-.596-4.172l-.85-3.468a2.717 2.717 0 1 1 5.276-1.293l.74 3.012-.467-5.775a2.717 2.717 0 1 1 5.416-.437l.377 4.673 1.013-7.278v-.002z" fill="url(#6p0ycmvs0b)"/>
        <path d="M15.802 4.64a2.716 2.716 0 1 1 5.382.749l-1.035 7.438c.776-2.22 1.567-4.338 2.227-5.805.531-1.384 1.845-2.268 3.48-1.793 1.476.484 2.177 2.153 1.608 3.592-1 2.53-2.39 6.337-3.256 9.67 1.327-.557 2.724-1.718 4.03-2.706 1.713-1.17 3.368-.793 4.263.54a2.82 2.82 0 0 1-.581 3.778L29.2 22.272a32.84 32.84 0 0 0-2.651 2.82 22.66 22.66 0 0 0-1.798 2.448c-.453.706-.938 1.39-1.454 2.052a11.279 11.279 0 0 1-2.592 2.416l-.01-.007a9.413 9.413 0 0 1-5.414 1.702 9.456 9.456 0 0 1-8.314-4.944c-1.452-2.578-1.69-5.242-1.905-7.663a55.48 55.48 0 0 0-.17-1.717 28.191 28.191 0 0 0-.596-4.172l-.85-3.468a2.717 2.717 0 1 1 5.276-1.293l.74 3.012-.467-5.775a2.717 2.717 0 1 1 5.416-.437l.377 4.673 1.013-7.278v-.002z" fill="url(#d2bt1ozt0c)"/>
    </g>
    <g filter="url(#bovhfgpyud)">
        <path d="m6.45 10.186 1.812 7.576" stroke="#FFDA3E" stroke-width="1.5" stroke-linecap="round"/>
    </g>
    <path d="m4.916 19.575-.022-.196a28.193 28.193 0 0 0-.597-4.173l-.85-3.467a2.717 2.717 0 1 1 5.276-1.294l.738 3.011.979 3.735c.3 2.143-3.006 4.02-5.524 2.385v-.001z" fill="url(#9g3a6im8ve)"/>
    <path d="m4.916 19.575-.022-.196a28.193 28.193 0 0 0-.597-4.173l-.85-3.467a2.717 2.717 0 1 1 5.276-1.294l.738 3.011.979 3.735c.3 2.143-3.006 4.02-5.524 2.385v-.001z" fill="url(#tx6h3j69kf)"/>
    <g filter="url(#k8ihwoxapg)">
        <path d="m12.259 7.11.967 8.26" stroke="#FFDA3E" stroke-width="1.5" stroke-linecap="round"/>
    </g>
    <path d="M15.16 16.461c0 .862-.475 2.056-1.987 2.303-1.606.26-2.595-1.194-2.817-1.78l-.905-3.56-.454-5.741a2.717 2.717 0 1 1 5.415-.437l.747 9.215z" fill="url(#hwutmsaegh)"/>
    <path d="M15.16 16.461c0 .862-.475 2.056-1.987 2.303-1.606.26-2.595-1.194-2.817-1.78l-.905-3.56-.454-5.741a2.717 2.717 0 1 1 5.415-.437l.747 9.215z" fill="url(#d8y2pas0mi)"/>
    <path d="M15.16 16.461c0 .862-.475 2.056-1.987 2.303-1.606.26-2.595-1.194-2.817-1.78l-.905-3.56-.454-5.741a2.717 2.717 0 1 1 5.415-.437l.747 9.215z" fill="url(#n1yqhgychj)"/>
    <path d="M15.16 16.461c0 .862-.475 2.056-1.987 2.303-1.606.26-2.595-1.194-2.817-1.78l-.905-3.56-.454-5.741a2.717 2.717 0 1 1 5.415-.437l.747 9.215z" fill="url(#epp5zqs4sk)"/>
    <path d="M15.16 16.461c0 .862-.475 2.056-1.987 2.303-1.606.26-2.595-1.194-2.817-1.78l-.905-3.56-.454-5.741a2.717 2.717 0 1 1 5.415-.437l.747 9.215z" fill="url(#f6lux04kbl)"/>
    <g filter="url(#laqrvxdd2m)">
        <path d="M19.08 5.299 18.043 15.37" stroke="#FFDA3E" stroke-width="1.5" stroke-linecap="round"/>
    </g>
    <path d="M15.135 16.177c.35.323.81.604 1.412.777 1.815.52 2.805-1.17 3.024-2.233l.577-1.894 1.035-7.438a2.717 2.717 0 1 0-5.382-.75L14.79 11.91l.345 4.267z" fill="url(#a17jc4eixn)"/>
    <path d="M15.135 16.177c.35.323.81.604 1.412.777 1.815.52 2.805-1.17 3.024-2.233l.577-1.894 1.035-7.438a2.717 2.717 0 1 0-5.382-.75L14.79 11.91l.345 4.267z" fill="url(#qmi8d0nuqo)"/>
    <path d="M15.135 16.177c.35.323.81.604 1.412.777 1.815.52 2.805-1.17 3.024-2.233l.577-1.894 1.035-7.438a2.717 2.717 0 1 0-5.382-.75L14.79 11.91l.345 4.267z" fill="url(#b45uo4u0lp)"/>
    <path d="M15.135 16.177c.35.323.81.604 1.412.777 1.815.52 2.805-1.17 3.024-2.233l.577-1.894 1.035-7.438a2.717 2.717 0 1 0-5.382-.75L14.79 11.91l.345 4.267z" fill="url(#lew2ikm1bq)"/>
    <path d="M15.135 16.177c.35.323.81.604 1.412.777 1.815.52 2.805-1.17 3.024-2.233l.577-1.894 1.035-7.438a2.717 2.717 0 1 0-5.382-.75L14.79 11.91l.345 4.267z" fill="url(#k0jj3urh1r)"/>
    <path d="M15.135 16.177c.35.323.81.604 1.412.777 1.815.52 2.805-1.17 3.024-2.233l.577-1.894 1.035-7.438a2.717 2.717 0 1 0-5.382-.75L14.79 11.91l.345 4.267z" fill="url(#dxbjopd4os)"/>
    <g filter="url(#xvmse8hlft)">
        <path d="M22.964 18.535c.399-1.406 1.652-5.913 3.34-10.581" stroke="url(#928ofvrl3u)" stroke-width=".75" stroke-linecap="round"/>
    </g>
    <path d="m24.217 18.487-.01.005c.109-.417.226-.84.348-1.27.86-2.995 2.034-6.187 2.91-8.401.07-.177.12-.36.154-.548.227-1.29-.472-2.621-1.763-3.044-1.635-.475-2.949.41-3.48 1.793a48.345 48.345 0 0 0-1.018 2.482 120.244 120.244 0 0 0-1.21 3.323l.005-.036-.01.047-.675 2.284c-.207.709-.446 2.34 1.17 3.375 1.615 1.035 3.192.673 3.573 0l.006-.01z" fill="url(#e08htjvbmv)"/>
    <path d="m24.217 18.487-.01.005c.109-.417.226-.84.348-1.27.86-2.995 2.034-6.187 2.91-8.401.07-.177.12-.36.154-.548.227-1.29-.472-2.621-1.763-3.044-1.635-.475-2.949.41-3.48 1.793a48.345 48.345 0 0 0-1.018 2.482 120.244 120.244 0 0 0-1.21 3.323l.005-.036-.01.047-.675 2.284c-.207.709-.446 2.34 1.17 3.375 1.615 1.035 3.192.673 3.573 0l.006-.01z" fill="url(#b8k11aiqcw)"/>
    <path d="m24.217 18.487-.01.005c.109-.417.226-.84.348-1.27.86-2.995 2.034-6.187 2.91-8.401.07-.177.12-.36.154-.548.227-1.29-.472-2.621-1.763-3.044-1.635-.475-2.949.41-3.48 1.793a48.345 48.345 0 0 0-1.018 2.482 120.244 120.244 0 0 0-1.21 3.323l.005-.036-.01.047-.675 2.284c-.207.709-.446 2.34 1.17 3.375 1.615 1.035 3.192.673 3.573 0l.006-.01z" fill="url(#nkes1zd7nx)"/>
    <path d="m24.217 18.487-.01.005c.109-.417.226-.84.348-1.27.86-2.995 2.034-6.187 2.91-8.401.07-.177.12-.36.154-.548.227-1.29-.472-2.621-1.763-3.044-1.635-.475-2.949.41-3.48 1.793a48.345 48.345 0 0 0-1.018 2.482 120.244 120.244 0 0 0-1.21 3.323l.005-.036-.01.047-.675 2.284c-.207.709-.446 2.34 1.17 3.375 1.615 1.035 3.192.673 3.573 0l.006-.01z" fill="url(#xt9jq9zpwy)"/>
    <g filter="url(#0i1hu5t2lz)">
        <path d="M31.19 17.34c-1.5.962-4.978 3.628-6.89 6.609" stroke="url(#ke7con12fA)" stroke-linecap="round"/>
    </g>
    <g filter="url(#34l9oic9tB)">
        <path d="M8.025 18.63c2.196-1.086 8.035-2.607 13.815 0" stroke="url(#au2gj5cobC)" stroke-width="1.5" stroke-linecap="round"/>
    </g>
    <path d="M15.802 4.64a2.716 2.716 0 1 1 5.382.749l-1.035 7.438c.776-2.22 1.567-4.338 2.227-5.805.531-1.384 1.845-2.268 3.48-1.793 1.476.484 2.177 2.153 1.608 3.592-1 2.53-2.39 6.337-3.256 9.67 1.327-.557 2.724-1.718 4.03-2.706 1.713-1.17 3.368-.793 4.263.54a2.82 2.82 0 0 1-.581 3.778L29.2 22.272a32.84 32.84 0 0 0-2.651 2.82 22.66 22.66 0 0 0-1.798 2.448c-.453.706-.938 1.39-1.454 2.052a11.279 11.279 0 0 1-2.592 2.416l-.01-.007a9.413 9.413 0 0 1-5.414 1.702 9.456 9.456 0 0 1-8.314-4.944c-1.452-2.578-1.69-5.242-1.905-7.663a55.48 55.48 0 0 0-.17-1.717 28.191 28.191 0 0 0-.596-4.172l-.85-3.468a2.717 2.717 0 1 1 5.276-1.293l.74 3.012-.467-5.775a2.717 2.717 0 1 1 5.416-.437l.377 4.673 1.013-7.278v-.002z" fill="url(#3duvkplldD)"/>
    <path d="M15.802 4.64a2.716 2.716 0 1 1 5.382.749l-1.035 7.438c.776-2.22 1.567-4.338 2.227-5.805.531-1.384 1.845-2.268 3.48-1.793 1.476.484 2.177 2.153 1.608 3.592-1 2.53-2.39 6.337-3.256 9.67 1.327-.557 2.724-1.718 4.03-2.706 1.713-1.17 3.368-.793 4.263.54a2.82 2.82 0 0 1-.581 3.778L29.2 22.272a32.84 32.84 0 0 0-2.651 2.82 22.66 22.66 0 0 0-1.798 2.448c-.453.706-.938 1.39-1.454 2.052a11.279 11.279 0 0 1-2.592 2.416l-.01-.007a9.413 9.413 0 0 1-5.414 1.702 9.456 9.456 0 0 1-8.314-4.944c-1.452-2.578-1.69-5.242-1.905-7.663a55.48 55.48 0 0 0-.17-1.717 28.191 28.191 0 0 0-.596-4.172l-.85-3.468a2.717 2.717 0 1 1 5.276-1.293l.74 3.012-.467-5.775a2.717 2.717 0 1 1 5.416-.437l.377 4.673 1.013-7.278v-.002z" fill="url(#ot6eyobbwE)"/>
    <path d="M15.802 4.64a2.716 2.716 0 1 1 5.382.749l-1.035 7.438c.776-2.22 1.567-4.338 2.227-5.805.531-1.384 1.845-2.268 3.48-1.793 1.476.484 2.177 2.153 1.608 3.592-1 2.53-2.39 6.337-3.256 9.67 1.327-.557 2.724-1.718 4.03-2.706 1.713-1.17 3.368-.793 4.263.54a2.82 2.82 0 0 1-.581 3.778L29.2 22.272a32.84 32.84 0 0 0-2.651 2.82 22.66 22.66 0 0 0-1.798 2.448c-.453.706-.938 1.39-1.454 2.052a11.279 11.279 0 0 1-2.592 2.416l-.01-.007a9.413 9.413 0 0 1-5.414 1.702 9.456 9.456 0 0 1-8.314-4.944c-1.452-2.578-1.69-5.242-1.905-7.663a55.48 55.48 0 0 0-.17-1.717 28.191 28.191 0 0 0-.596-4.172l-.85-3.468a2.717 2.717 0 1 1 5.276-1.293l.74 3.012-.467-5.775a2.717 2.717 0 1 1 5.416-.437l.377 4.673 1.013-7.278v-.002z" fill="url(#f154cs3pvF)"/>
    <path d="M15.802 4.64a2.716 2.716 0 1 1 5.382.749l-1.035 7.438c.776-2.22 1.567-4.338 2.227-5.805.531-1.384 1.845-2.268 3.48-1.793 1.476.484 2.177 2.153 1.608 3.592-1 2.53-2.39 6.337-3.256 9.67 1.327-.557 2.724-1.718 4.03-2.706 1.713-1.17 3.368-.793 4.263.54a2.82 2.82 0 0 1-.581 3.778L29.2 22.272a32.84 32.84 0 0 0-2.651 2.82 22.66 22.66 0 0 0-1.798 2.448c-.453.706-.938 1.39-1.454 2.052a11.279 11.279 0 0 1-2.592 2.416l-.01-.007a9.413 9.413 0 0 1-5.414 1.702 9.456 9.456 0 0 1-8.314-4.944c-1.452-2.578-1.69-5.242-1.905-7.663a55.48 55.48 0 0 0-.17-1.717 28.191 28.191 0 0 0-.596-4.172l-.85-3.468a2.717 2.717 0 1 1 5.276-1.293l.74 3.012-.467-5.775a2.717 2.717 0 1 1 5.416-.437l.377 4.673 1.013-7.278v-.002z" fill="url(#re0ex1kzzG)"/>
    <path d="M15.802 4.64a2.716 2.716 0 1 1 5.382.749l-1.035 7.438c.776-2.22 1.567-4.338 2.227-5.805.531-1.384 1.845-2.268 3.48-1.793 1.476.484 2.177 2.153 1.608 3.592-1 2.53-2.39 6.337-3.256 9.67 1.327-.557 2.724-1.718 4.03-2.706 1.713-1.17 3.368-.793 4.263.54a2.82 2.82 0 0 1-.581 3.778L29.2 22.272a32.84 32.84 0 0 0-2.651 2.82 22.66 22.66 0 0 0-1.798 2.448c-.453.706-.938 1.39-1.454 2.052a11.279 11.279 0 0 1-2.592 2.416l-.01-.007a9.413 9.413 0 0 1-5.414 1.702 9.456 9.456 0 0 1-8.314-4.944c-1.452-2.578-1.69-5.242-1.905-7.663a55.48 55.48 0 0 0-.17-1.717 28.191 28.191 0 0 0-.596-4.172l-.85-3.468a2.717 2.717 0 1 1 5.276-1.293l.74 3.012-.467-5.775a2.717 2.717 0 1 1 5.416-.437l.377 4.673 1.013-7.278v-.002z" fill="url(#nxdvjl3i7H)"/>
    <defs>
        <radialGradient id="6p0ycmvs0b" cx="0" cy="0" r="1" gradientUnits="userSpaceOnUse" gradientTransform="rotate(162.091 12.492 9.233) scale(24.2369 40.087)">
            <stop offset=".85" stop-color="#F5A732" stop-opacity="0"/>
            <stop offset="1" stop-color="#F5A732"/>
        </radialGradient>
        <radialGradient id="d2bt1ozt0c" cx="0" cy="0" r="1" gradientUnits="userSpaceOnUse" gradientTransform="rotate(-103.241 23.664 5.986) scale(6.18697 13.8638)">
            <stop stop-color="#FFCC46"/>
            <stop offset="1" stop-color="#FFCC46" stop-opacity="0"/>
        </radialGradient>
        <radialGradient id="n1yqhgychj" cx="0" cy="0" r="1" gradientUnits="userSpaceOnUse" gradientTransform="matrix(1.01953 -.14062 1.19666 8.67582 9.27 15.108)">
            <stop stop-color="#743200"/>
            <stop offset="1" stop-color="#743200" stop-opacity="0"/>
        </radialGradient>
        <radialGradient id="f6lux04kbl" cx="0" cy="0" r="1" gradientUnits="userSpaceOnUse" gradientTransform="rotate(58.762 .639 10.997) scale(3.0506 3.74924)">
            <stop stop-color="#E2A53A"/>
            <stop offset="1" stop-color="#E2A53A" stop-opacity="0"/>
        </radialGradient>
        <radialGradient id="b45uo4u0lp" cx="0" cy="0" r="1" gradientUnits="userSpaceOnUse" gradientTransform="matrix(-.86132 -.1582 .92726 -5.04826 20.344 13.913)">
            <stop stop-color="#854104"/>
            <stop offset="1" stop-color="#854104" stop-opacity="0"/>
        </radialGradient>
        <radialGradient id="lew2ikm1bq" cx="0" cy="0" r="1" gradientUnits="userSpaceOnUse" gradientTransform="matrix(2.09017 .1417 -.62368 9.19944 13.41 14.166)">
            <stop offset=".216" stop-color="#854104"/>
            <stop offset="1" stop-color="#854104" stop-opacity="0"/>
        </radialGradient>
        <radialGradient id="k0jj3urh1r" cx="0" cy="0" r="1" gradientUnits="userSpaceOnUse" gradientTransform="rotate(73.754 7.316 12.205) scale(3.61621 5.45166)">
            <stop stop-color="#DBA737"/>
            <stop offset="1" stop-color="#DBA737" stop-opacity="0"/>
        </radialGradient>
        <radialGradient id="nkes1zd7nx" cx="0" cy="0" r="1" gradientUnits="userSpaceOnUse" gradientTransform="matrix(.1964 3.33424 -.5296 .0312 23.294 4.566)">
            <stop stop-color="#DBA737"/>
            <stop offset="1" stop-color="#DBA737" stop-opacity="0"/>
        </radialGradient>
        <radialGradient id="xt9jq9zpwy" cx="0" cy="0" r="1" gradientUnits="userSpaceOnUse" gradientTransform="matrix(-1.12582 -.50977 1.4004 -3.09274 24.617 18.359)">
            <stop offset=".218" stop-color="#DFA63D"/>
            <stop offset="1" stop-color="#DFA63D" stop-opacity="0"/>
        </radialGradient>
        <radialGradient id="3duvkplldD" cx="0" cy="0" r="1" gradientUnits="userSpaceOnUse" gradientTransform="rotate(149.088 14.258 12.631) scale(3.61139 4.84355)">
            <stop stop-color="#FFE949"/>
            <stop offset="1" stop-color="#FFE949" stop-opacity="0"/>
        </radialGradient>
        <radialGradient id="ot6eyobbwE" cx="0" cy="0" r="1" gradientUnits="userSpaceOnUse" gradientTransform="rotate(124.237 11.9 10.166) scale(3.06182 3.95837)">
            <stop stop-color="#FFE949"/>
            <stop offset="1" stop-color="#FFE949" stop-opacity="0"/>
        </radialGradient>
        <radialGradient id="f154cs3pvF" cx="0" cy="0" r="1" gradientUnits="userSpaceOnUse" gradientTransform="matrix(-1.75071 3.72265 -4.11756 -1.93643 20.39 2.298)">
            <stop stop-color="#FFE949"/>
            <stop offset="1" stop-color="#FFE949" stop-opacity="0"/>
        </radialGradient>
        <radialGradient id="re0ex1kzzG" cx="0" cy="0" r="1" gradientUnits="userSpaceOnUse" gradientTransform="rotate(103.338 4.463 7.399) scale(3.16969 3.02262)">
            <stop stop-color="#FFE949"/>
            <stop offset="1" stop-color="#FFE949" stop-opacity="0"/>
        </radialGradient>
        <radialGradient id="nxdvjl3i7H" cx="0" cy="0" r="1" gradientUnits="userSpaceOnUse" gradientTransform="matrix(-.63281 1.79296 -1.91434 -.67565 7.347 9.141)">
            <stop stop-color="#FFE949"/>
            <stop offset="1" stop-color="#FFE949" stop-opacity="0"/>
        </radialGradient>
        <linearGradient id="9g3a6im8ve" x1="9.605" y1="13.579" x2="8.937" y2="13.754" gradientUnits="userSpaceOnUse">
            <stop stop-color="#D38C08"/>
            <stop offset="1" stop-color="#D38C08" stop-opacity="0"/>
        </linearGradient>
        <linearGradient id="tx6h3j69kf" x1="10.553" y1="17.48" x2="8.849" y2="16.654" gradientUnits="userSpaceOnUse">
            <stop stop-color="#FFC23F"/>
            <stop offset="1" stop-color="#FFC23F" stop-opacity="0"/>
        </linearGradient>
        <linearGradient id="hwutmsaegh" x1="15.019" y1="11.399" x2="14.193" y2="11.469" gradientUnits="userSpaceOnUse">
            <stop stop-color="#C78A3B"/>
            <stop offset="1" stop-color="#C78A3B" stop-opacity="0"/>
        </linearGradient>
        <linearGradient id="d8y2pas0mi" x1="8.62" y1="12.136" x2="11.89" y2="11.771" gradientUnits="userSpaceOnUse">
            <stop stop-color="#E29208"/>
            <stop offset="1" stop-color="#E29208" stop-opacity="0"/>
        </linearGradient>
        <linearGradient id="epp5zqs4sk" x1="15.159" y1="16.777" x2="14.351" y2="14.141" gradientUnits="userSpaceOnUse">
            <stop stop-color="#FFC23F"/>
            <stop offset="1" stop-color="#FFC23F" stop-opacity="0"/>
        </linearGradient>
        <linearGradient id="a17jc4eixn" x1="13.893" y1="9.886" x2="17.163" y2="10.344" gradientUnits="userSpaceOnUse">
            <stop stop-color="#D58C07"/>
            <stop offset="1" stop-color="#D58C07" stop-opacity="0"/>
        </linearGradient>
        <linearGradient id="qmi8d0nuqo" x1="20.66" y1="12.896" x2="19.483" y2="12.718" gradientUnits="userSpaceOnUse">
            <stop stop-color="#CD8921"/>
            <stop offset="1" stop-color="#CD8921" stop-opacity="0"/>
        </linearGradient>
        <linearGradient id="dxbjopd4os" x1="16.758" y1="16.805" x2="17.093" y2="13.192" gradientUnits="userSpaceOnUse">
            <stop stop-color="#FFC23F"/>
            <stop offset="1" stop-color="#FFC23F" stop-opacity="0"/>
        </linearGradient>
        <linearGradient id="928ofvrl3u" x1="24.159" y1="16.567" x2="28.413" y2="2.047" gradientUnits="userSpaceOnUse">
            <stop stop-color="#FFDA3E"/>
            <stop offset="1" stop-color="#FFDA3E" stop-opacity="0"/>
        </linearGradient>
        <linearGradient id="e08htjvbmv" x1="19.716" y1="10.694" x2="23.491" y2="12.122" gradientUnits="userSpaceOnUse">
            <stop stop-color="#CE8716"/>
            <stop offset="1" stop-color="#CE8716" stop-opacity="0"/>
        </linearGradient>
        <linearGradient id="b8k11aiqcw" x1="20.248" y1="18.666" x2="21.204" y2="16.717" gradientUnits="userSpaceOnUse">
            <stop stop-color="#FFC23F"/>
            <stop offset="1" stop-color="#FFC23F" stop-opacity="0"/>
        </linearGradient>
        <linearGradient id="ke7con12fA" x1="31.19" y1="17.34" x2="30.631" y2="23.945" gradientUnits="userSpaceOnUse">
            <stop stop-color="#FFDA3E"/>
            <stop offset="1" stop-color="#FFDA3E" stop-opacity="0"/>
        </linearGradient>
        <linearGradient id="au2gj5cobC" x1="20.282" y1="19.197" x2="3.845" y2="20.047" gradientUnits="userSpaceOnUse">
            <stop stop-color="#FFD544"/>
            <stop offset="1" stop-color="#FFD544" stop-opacity="0"/>
        </linearGradient>
        <filter id="pjwe6i5ema" x="3.354" y="1.897" width="30.026" height="31.805" filterUnits="userSpaceOnUse" color-interpolation-filters="sRGB">
            <feFlood flood-opacity="0" result="BackgroundImageFix"/>
            <feBlend in="SourceGraphic" in2="BackgroundImageFix" result="shape"/>
            <feColorMatrix in="SourceAlpha" values="0 0 0 0 0 0 0 0 0 0 0 0 0 0 0 0 0 0 127 0" result="hardAlpha"/>
            <feOffset dx=".4" dy="-.4"/>
            <feGaussianBlur stdDeviation="1.125"/>
            <feComposite in2="hardAlpha" operator="arithmetic" k2="-1" k3="1"/>
            <feColorMatrix values="0 0 0 0 0.960784 0 0 0 0 0.486275 0 0 0 0 0.411765 0 0 0 1 0"/>
            <feBlend in2="shape" result="effect1_innerShadow_414_12049"/>
        </filter>
        <filter id="bovhfgpyud" x="3.901" y="7.636" width="6.912" height="12.676" filterUnits="userSpaceOnUse" color-interpolation-filters="sRGB">
            <feFlood flood-opacity="0" result="BackgroundImageFix"/>
            <feBlend in="SourceGraphic" in2="BackgroundImageFix" result="shape"/>
            <feGaussianBlur stdDeviation=".9" result="effect1_foregroundBlur_414_12049"/>
        </filter>
        <filter id="k8ihwoxapg" x="9.509" y="4.36" width="6.468" height="13.761" filterUnits="userSpaceOnUse" color-interpolation-filters="sRGB">
            <feFlood flood-opacity="0" result="BackgroundImageFix"/>
            <feBlend in="SourceGraphic" in2="BackgroundImageFix" result="shape"/>
            <feGaussianBlur stdDeviation="1" result="effect1_foregroundBlur_414_12049"/>
        </filter>
        <filter id="laqrvxdd2m" x="15.293" y="2.549" width="6.537" height="15.572" filterUnits="userSpaceOnUse" color-interpolation-filters="sRGB">
            <feFlood flood-opacity="0" result="BackgroundImageFix"/>
            <feBlend in="SourceGraphic" in2="BackgroundImageFix" result="shape"/>
            <feGaussianBlur stdDeviation="1" result="effect1_foregroundBlur_414_12049"/>
        </filter>
        <filter id="xvmse8hlft" x="21.339" y="6.329" width="6.589" height="13.832" filterUnits="userSpaceOnUse" color-interpolation-filters="sRGB">
            <feFlood flood-opacity="0" result="BackgroundImageFix"/>
            <feBlend in="SourceGraphic" in2="BackgroundImageFix" result="shape"/>
            <feGaussianBlur stdDeviation=".625" result="effect1_foregroundBlur_414_12049"/>
        </filter>
        <filter id="0i1hu5t2lz" x="22.3" y="15.34" width="10.891" height="10.609" filterUnits="userSpaceOnUse" color-interpolation-filters="sRGB">
            <feFlood flood-opacity="0" result="BackgroundImageFix"/>
            <feBlend in="SourceGraphic" in2="BackgroundImageFix" result="shape"/>
            <feGaussianBlur stdDeviation=".75" result="effect1_foregroundBlur_414_12049"/>
        </filter>
        <filter id="34l9oic9tB" x="5.275" y="14.441" width="19.315" height="6.939" filterUnits="userSpaceOnUse" color-interpolation-filters="sRGB">
            <feFlood flood-opacity="0" result="BackgroundImageFix"/>
            <feBlend in="SourceGraphic" in2="BackgroundImageFix" result="shape"/>
            <feGaussianBlur stdDeviation="1" result="effect1_foregroundBlur_414_12049"/>
        </filter>
    </defs>
</svg>
