<svg width="current" height="current" viewBox="0 0 20 20" fill="none" xmlns="http://www.w3.org/2000/svg">
    <path d="M17.916 4.965h-2.274l.382-2.295a1.25 1.25 0 0 0-2.466-.411l-.45 2.706H9.393l.382-2.295A1.25 1.25 0 0 0 7.31 2.26l-.451 2.706H4.167c-.69 0-1.25.56-1.25 1.25 0 .726.56 1.25 1.25 1.25H6.44l-.833 5H2.917c-.69 0-1.25.56-1.25 1.25s.56 1.215 1.25 1.215H5.19l-.382 2.294a1.25 1.25 0 0 0 1.027 1.439c.069.083.14.087.205.087.6 0 1.13-.433 1.232-1.044L7.723 15h3.717l-.383 2.294a1.25 1.25 0 0 0 2.466.412l.45-2.706h2.693c.69 0 1.25-.56 1.25-1.215 0-.69-.56-1.25-1.25-1.25h-2.274l.833-5h2.691c.69 0 1.25-.56 1.25-1.215 0-.761-.558-1.355-1.25-1.355zm-6.058 7.5H8.143l.832-5h3.716l-.833 5z" fill="current"/>
</svg>
