<svg width="current" height="current" viewBox="0 0 72 20" fill="none" xmlns="http://www.w3.org/2000/svg">
<path d="M6.98924 16.238C6.67724 16.238 6.43124 16.178 6.25124 16.058C6.07124 15.938 5.93924 15.8 5.85524 15.644C5.78324 15.488 5.73524 15.38 5.71124 15.32L2.32724 5.50999C2.17124 5.00599 2.14724 4.63399 2.25524 4.39399C2.36324 4.14199 2.67524 3.93199 3.19124 3.76399C3.52724 3.65599 3.79724 3.60799 4.00124 3.61999C4.21724 3.63199 4.39124 3.71599 4.52324 3.87199C4.66724 4.02799 4.79324 4.27399 4.90124 4.60999L7.15124 11.288L9.04124 4.69999C9.07724 4.57999 9.13124 4.44199 9.20324 4.28599C9.28724 4.12999 9.41924 3.99199 9.59924 3.87199C9.77924 3.75199 10.0312 3.69199 10.3552 3.69199C10.7272 3.69199 11.0032 3.75799 11.1832 3.88999C11.3752 4.02199 11.5072 4.16599 11.5792 4.32199C11.6512 4.47799 11.7052 4.59799 11.7412 4.68199L13.6492 11.324L15.8812 4.62799C15.9892 4.29199 16.1092 4.04599 16.2412 3.88999C16.3852 3.72199 16.5652 3.62599 16.7812 3.60199C17.0092 3.57799 17.2912 3.62599 17.6272 3.74599C17.9872 3.87799 18.2392 4.01599 18.3832 4.15999C18.5272 4.30399 18.5992 4.48399 18.5992 4.69999C18.6112 4.90399 18.5692 5.17399 18.4732 5.50999L15.0892 15.32C15.0652 15.392 15.0112 15.506 14.9272 15.662C14.8552 15.806 14.7292 15.938 14.5492 16.058C14.3812 16.178 14.1292 16.238 13.7932 16.238C13.4692 16.238 13.2112 16.166 13.0192 16.022C12.8272 15.878 12.6892 15.728 12.6052 15.572C12.5332 15.404 12.4852 15.29 12.4612 15.23L10.3912 8.51599L8.32124 15.23C8.30924 15.29 8.26124 15.404 8.17724 15.572C8.09324 15.74 7.95524 15.896 7.76324 16.04C7.58324 16.172 7.32524 16.238 6.98924 16.238Z" fill="#0086E7"/>
<path d="M20.6126 16.274C20.1686 16.274 19.8506 16.214 19.6586 16.094C19.4786 15.962 19.3646 15.794 19.3166 15.59C19.2806 15.374 19.2626 15.152 19.2626 14.924V8.64199C19.2626 8.40199 19.2806 8.17999 19.3166 7.97599C19.3646 7.77199 19.4846 7.60999 19.6766 7.48999C19.8686 7.35799 20.1866 7.29199 20.6306 7.29199C21.0626 7.29199 21.3686 7.35799 21.5486 7.48999C21.7406 7.62199 21.8546 7.78999 21.8906 7.99399C21.9386 8.19799 21.9626 8.42599 21.9626 8.67799V14.942C21.9626 15.17 21.9386 15.392 21.8906 15.608C21.8546 15.812 21.7406 15.974 21.5486 16.094C21.3686 16.214 21.0566 16.274 20.6126 16.274ZM20.6126 5.97799C20.1566 5.97799 19.8326 5.91199 19.6406 5.77999C19.4486 5.64799 19.3286 5.47399 19.2806 5.25799C19.2446 5.04199 19.2266 4.81399 19.2266 4.57399C19.2266 4.32199 19.2506 4.09399 19.2986 3.88999C19.3466 3.67399 19.4666 3.50599 19.6586 3.38599C19.8506 3.25399 20.1746 3.18799 20.6306 3.18799C21.0746 3.18799 21.3926 3.25399 21.5846 3.38599C21.7766 3.51799 21.8906 3.69199 21.9266 3.90799C21.9746 4.12399 21.9986 4.35199 21.9986 4.59199C21.9986 4.83199 21.9746 5.05999 21.9266 5.27599C21.8906 5.49199 21.7766 5.66599 21.5846 5.79799C21.3926 5.91799 21.0686 5.97799 20.6126 5.97799Z" fill="#0086E7"/>
<path d="M26.7719 16.418C26.4479 16.418 26.0939 16.382 25.7099 16.31C25.3379 16.238 24.9719 16.136 24.6119 16.004C24.2519 15.86 23.9519 15.698 23.7119 15.518C23.4719 15.326 23.3339 15.11 23.2979 14.87C23.2739 14.75 23.2739 14.624 23.2979 14.492C23.3339 14.348 23.3939 14.204 23.4779 14.06C23.5619 13.904 23.6639 13.742 23.7839 13.574C23.8799 13.442 23.9879 13.358 24.1079 13.322C24.2279 13.286 24.3659 13.292 24.5219 13.34C24.7139 13.376 24.9059 13.442 25.0979 13.538C25.3019 13.622 25.4999 13.718 25.6919 13.826C25.8959 13.922 26.1059 14.012 26.3219 14.096C26.5379 14.168 26.7599 14.204 26.9879 14.204C27.3239 14.204 27.5819 14.156 27.7619 14.06C27.9539 13.952 28.0499 13.808 28.0499 13.628C28.0499 13.496 28.0079 13.388 27.9239 13.304C27.8519 13.22 27.7439 13.148 27.5999 13.088C27.4679 13.016 27.3119 12.956 27.1319 12.908C26.9519 12.86 26.7539 12.812 26.5379 12.764C26.3339 12.704 26.1239 12.644 25.9079 12.584C25.6079 12.5 25.3199 12.392 25.0439 12.26C24.7679 12.128 24.5159 11.96 24.2879 11.756C24.0599 11.54 23.8799 11.282 23.7479 10.982C23.6159 10.67 23.5499 10.292 23.5499 9.84799C23.5499 9.25999 23.6879 8.76799 23.9639 8.37199C24.2399 7.97599 24.6419 7.67599 25.1699 7.47199C25.6979 7.25599 26.3399 7.14799 27.0959 7.14799C27.3119 7.14799 27.5279 7.15999 27.7439 7.18399C27.9599 7.20799 28.1699 7.24999 28.3739 7.30999C28.5899 7.36999 28.7999 7.44199 29.0039 7.52599C29.2079 7.60999 29.4119 7.71199 29.6159 7.83199C29.9759 7.99999 30.1619 8.22799 30.1739 8.51599C30.1859 8.80399 30.0839 9.09799 29.8679 9.39799C29.7359 9.60199 29.5979 9.75199 29.4539 9.84799C29.3099 9.93199 29.1599 9.95599 29.0039 9.91999C28.8119 9.87199 28.6019 9.79399 28.3739 9.68599C28.1579 9.57799 27.9239 9.47599 27.6719 9.37999C27.4319 9.28399 27.1919 9.23599 26.9519 9.23599C26.7479 9.23599 26.5739 9.26599 26.4299 9.32599C26.2859 9.37399 26.1779 9.44599 26.1059 9.54199C26.0339 9.62599 25.9979 9.72799 25.9979 9.84799C25.9979 10.004 26.0399 10.13 26.1239 10.226C26.2199 10.31 26.3459 10.382 26.5019 10.442C26.6579 10.502 26.8379 10.556 27.0419 10.604C27.2459 10.652 27.4679 10.7 27.7079 10.748C28.0319 10.808 28.3619 10.892 28.6979 11C29.0459 11.096 29.3579 11.24 29.6339 11.432C29.9219 11.624 30.1499 11.882 30.3179 12.206C30.4979 12.53 30.5879 12.956 30.5879 13.484C30.5879 14.432 30.2579 15.158 29.5979 15.662C28.9379 16.166 27.9959 16.418 26.7719 16.418Z" fill="#0086E7"/>
<path d="M33.0541 16.274C32.6221 16.274 32.3101 16.214 32.1181 16.094C31.9261 15.962 31.8061 15.794 31.7581 15.59C31.7221 15.374 31.7041 15.146 31.7041 14.906V4.53799C31.7041 4.29799 31.7281 4.07599 31.7761 3.87199C31.8241 3.66799 31.9441 3.50599 32.1361 3.38599C32.3281 3.25399 32.6401 3.18799 33.0721 3.18799C33.5161 3.18799 33.8281 3.25399 34.0081 3.38599C34.2001 3.51799 34.3141 3.68599 34.3501 3.88999C34.3981 4.09399 34.4221 4.31599 34.4221 4.55599V8.22799C34.6381 7.99999 34.9141 7.78399 35.2501 7.57999C35.5981 7.37599 36.0061 7.27399 36.4741 7.27399C37.2181 7.27399 37.8841 7.46599 38.4721 7.84999C39.0721 8.22199 39.5461 8.73799 39.8941 9.39799C40.2541 10.058 40.4341 10.814 40.4341 11.666V14.924C40.4341 15.164 40.4101 15.386 40.3621 15.59C40.3141 15.794 40.2001 15.962 40.0201 16.094C39.8401 16.214 39.5221 16.274 39.0661 16.274C38.6461 16.274 38.3341 16.214 38.1301 16.094C37.9381 15.962 37.8181 15.794 37.7701 15.59C37.7341 15.374 37.7161 15.146 37.7161 14.906V11.648C37.7161 11.3 37.6561 11.006 37.5361 10.766C37.4161 10.514 37.2361 10.316 36.9961 10.172C36.7681 10.028 36.4861 9.95599 36.1501 9.95599C35.7061 9.95599 35.3161 10.094 34.9801 10.37C34.6561 10.634 34.4701 10.958 34.4221 11.342V14.924C34.4221 15.164 34.3981 15.386 34.3501 15.59C34.3021 15.794 34.1821 15.962 33.9901 16.094C33.8101 16.214 33.4981 16.274 33.0541 16.274Z" fill="#0086E7"/>
<path d="M46.2458 16.274C45.6338 16.274 45.1058 16.208 44.6618 16.076C44.2298 15.944 43.8698 15.74 43.5818 15.464C43.2938 15.188 43.0778 14.84 42.9338 14.42C42.8018 13.988 42.7358 13.478 42.7358 12.89V5.58199C42.7358 5.34199 42.7538 5.12599 42.7898 4.93399C42.8378 4.74199 42.9578 4.58599 43.1498 4.46599C43.3418 4.33399 43.6538 4.26799 44.0858 4.26799C44.5178 4.26799 44.8298 4.33399 45.0218 4.46599C45.2138 4.59799 45.3278 4.76599 45.3638 4.96999C45.4118 5.17399 45.4358 5.39599 45.4358 5.63599V12.782C45.4358 12.974 45.4478 13.136 45.4718 13.268C45.5078 13.388 45.5558 13.478 45.6158 13.538C45.6758 13.598 45.7598 13.64 45.8678 13.664C45.9758 13.688 46.1078 13.7 46.2638 13.7C46.5278 13.7 46.7618 13.724 46.9658 13.772C47.1698 13.82 47.3258 13.928 47.4338 14.096C47.5538 14.264 47.6138 14.546 47.6138 14.942C47.6138 15.374 47.5478 15.686 47.4158 15.878C47.2838 16.07 47.1098 16.184 46.8938 16.22C46.6898 16.256 46.4738 16.274 46.2458 16.274ZM42.1778 7.41799H44.1578L46.6418 7.34599C46.8698 7.34599 47.0858 7.36999 47.2898 7.41799C47.4938 7.45399 47.6618 7.56799 47.7938 7.75999C47.9258 7.95199 47.9918 8.26999 47.9918 8.71399C47.9918 9.12199 47.9258 9.42199 47.7938 9.61399C47.6738 9.80599 47.5118 9.93199 47.3078 9.99199C47.1038 10.04 46.8818 10.064 46.6418 10.064L44.2838 10.01H42.1058C41.7578 9.99799 41.5118 9.89599 41.3678 9.70399C41.2358 9.49999 41.1698 9.16399 41.1698 8.69599C41.1698 8.26399 41.2538 7.94599 41.4218 7.74199C41.5898 7.52599 41.8418 7.41799 42.1778 7.41799Z" fill="#0086E7"/>
<path d="M50.3702 16.274C49.9262 16.274 49.6082 16.214 49.4162 16.094C49.2362 15.962 49.1222 15.788 49.0742 15.572C49.0382 15.356 49.0202 15.134 49.0202 14.906V8.62399C49.0202 8.38399 49.0442 8.16199 49.0922 7.95799C49.1402 7.75399 49.2542 7.59199 49.4342 7.47199C49.6262 7.33999 49.9442 7.27399 50.3882 7.27399C50.8082 7.27399 51.1082 7.33399 51.2882 7.45399C51.4802 7.56199 51.6002 7.69399 51.6482 7.84999C51.6962 7.99399 51.7202 8.11999 51.7202 8.22799L51.5042 8.33599C51.5282 8.28799 51.5882 8.20399 51.6842 8.08399C51.7922 7.95199 51.9362 7.81999 52.1162 7.68799C52.2962 7.54399 52.5122 7.42399 52.7642 7.32799C53.0282 7.23199 53.3282 7.18399 53.6642 7.18399C53.7962 7.18399 53.9402 7.19599 54.0962 7.21999C54.2642 7.23199 54.4322 7.26799 54.6002 7.32799C54.7802 7.37599 54.9422 7.44799 55.0862 7.54399C55.2302 7.62799 55.3442 7.73599 55.4282 7.86799C55.5242 7.99999 55.5722 8.16199 55.5722 8.35399C55.5722 8.84599 55.4582 9.26599 55.2302 9.61399C55.0022 9.94999 54.7142 10.118 54.3662 10.118C54.1622 10.118 54.0182 10.1 53.9342 10.064C53.8502 10.028 53.7782 9.99199 53.7182 9.95599C53.6702 9.91999 53.6102 9.88999 53.5382 9.86599C53.4662 9.82999 53.3342 9.81199 53.1422 9.81199C52.9622 9.81199 52.7882 9.83599 52.6202 9.88399C52.4642 9.93199 52.3142 10.01 52.1702 10.118C52.0382 10.214 51.9302 10.34 51.8462 10.496C51.7742 10.64 51.7382 10.802 51.7382 10.982V14.942C51.7382 15.17 51.7142 15.392 51.6662 15.608C51.6302 15.812 51.5162 15.974 51.3242 16.094C51.1322 16.214 50.8142 16.274 50.3702 16.274Z" fill="#0086E7"/>
<path d="M58.0716 16.274C57.6276 16.274 57.3096 16.214 57.1175 16.094C56.9375 15.962 56.8236 15.794 56.7756 15.59C56.7396 15.374 56.7215 15.152 56.7215 14.924V8.64199C56.7215 8.40199 56.7396 8.17999 56.7756 7.97599C56.8236 7.77199 56.9436 7.60999 57.1356 7.48999C57.3276 7.35799 57.6455 7.29199 58.0896 7.29199C58.5215 7.29199 58.8275 7.35799 59.0075 7.48999C59.1996 7.62199 59.3136 7.78999 59.3496 7.99399C59.3976 8.19799 59.4216 8.42599 59.4216 8.67799V14.942C59.4216 15.17 59.3976 15.392 59.3496 15.608C59.3136 15.812 59.1996 15.974 59.0075 16.094C58.8275 16.214 58.5156 16.274 58.0716 16.274ZM58.0716 5.97799C57.6156 5.97799 57.2916 5.91199 57.0996 5.77999C56.9076 5.64799 56.7876 5.47399 56.7396 5.25799C56.7036 5.04199 56.6856 4.81399 56.6856 4.57399C56.6856 4.32199 56.7095 4.09399 56.7575 3.88999C56.8055 3.67399 56.9255 3.50599 57.1175 3.38599C57.3096 3.25399 57.6335 3.18799 58.0896 3.18799C58.5336 3.18799 58.8516 3.25399 59.0436 3.38599C59.2356 3.51799 59.3496 3.69199 59.3856 3.90799C59.4336 4.12399 59.4576 4.35199 59.4576 4.59199C59.4576 4.83199 59.4336 5.05999 59.3856 5.27599C59.3496 5.49199 59.2356 5.66599 59.0436 5.79799C58.8516 5.91799 58.5276 5.97799 58.0716 5.97799Z" fill="#0086E7"/>
<path d="M65.7069 16.112C65.1189 16.112 64.5969 15.998 64.1409 15.77C63.6969 15.53 63.3249 15.212 63.0249 14.816C62.7369 14.408 62.5149 13.94 62.3589 13.412C62.2149 12.884 62.1489 12.314 62.1609 11.702C62.1609 11.114 62.2389 10.556 62.3949 10.028C62.5509 9.48799 62.7729 9.01399 63.0609 8.60599C63.3609 8.18599 63.7269 7.86199 64.1589 7.63399C64.6029 7.39399 65.1189 7.27399 65.7069 7.27399C66.2349 7.27399 66.7449 7.39399 67.2369 7.63399C67.7409 7.87399 68.1849 8.20399 68.5689 8.62399C68.9529 9.03199 69.2529 9.50599 69.4689 10.046C69.6969 10.586 69.8109 11.156 69.8109 11.756C69.8109 12.356 69.6969 12.926 69.4689 13.466C69.2529 13.994 68.9529 14.456 68.5689 14.852C68.1849 15.248 67.7469 15.56 67.2549 15.788C66.7629 16.004 66.2469 16.112 65.7069 16.112ZM62.2329 20C61.8009 20 61.4889 19.934 61.2969 19.802C61.1169 19.682 61.0029 19.52 60.9549 19.316C60.9189 19.124 60.9009 18.914 60.9009 18.686V8.62399C60.9009 8.38399 60.9189 8.16799 60.9549 7.97599C60.9909 7.77199 61.0989 7.60399 61.2789 7.47199C61.4709 7.33999 61.7829 7.27399 62.2149 7.27399C62.5869 7.27399 62.8809 7.32799 63.0969 7.43599C63.3249 7.54399 63.4869 7.71199 63.5829 7.93999V18.668C63.5949 18.896 63.5769 19.112 63.5289 19.316C63.4809 19.52 63.3609 19.682 63.1689 19.802C62.9889 19.934 62.6769 20 62.2329 20ZM65.3289 13.574C65.6649 13.574 65.9649 13.496 66.2289 13.34C66.4929 13.172 66.7029 12.95 66.8589 12.674C67.0269 12.398 67.1109 12.092 67.1109 11.756C67.1109 11.408 67.0329 11.102 66.8769 10.838C66.7209 10.562 66.5109 10.346 66.2469 10.19C65.9829 10.034 65.6829 9.95599 65.3469 9.95599C65.0229 9.95599 64.7229 10.04 64.4469 10.208C64.1829 10.364 63.9729 10.58 63.8169 10.856C63.6729 11.12 63.6009 11.42 63.6009 11.756C63.6009 12.092 63.6789 12.398 63.8349 12.674C63.9909 12.95 64.2009 13.172 64.4649 13.34C64.7289 13.496 65.0169 13.574 65.3289 13.574Z" fill="#0086E7"/>
</svg>
