<svg width="current" height="current" viewBox="0 0 24 24" fill="none" xmlns="http://www.w3.org/2000/svg">
    <path d="m11.438 3.938.52.562.562-.562c1.57-1.53 3.746-2.227 5.883-1.87A6.699 6.699 0 0 1 24 8.676v.271a7.012 7.012 0 0 1-2.231 5.133l-8.47 7.908a1.903 1.903 0 0 1-2.597 0L2.23 14.081A7.02 7.02 0 0 1 0 8.948v-.271a6.7 6.7 0 0 1 5.597-6.61 6.738 6.738 0 0 1 5.84 1.87c0 .001-.042 0 0 0zm.52 3.745-2.11-2.194a4.549 4.549 0 0 0-3.88-1.203 4.451 4.451 0 0 0-3.718 4.39v.272c0 1.322.549 2.588 1.516 3.488L12 20.123l8.236-7.687a4.77 4.77 0 0 0 1.514-3.488v-.271a4.453 4.453 0 0 0-3.717-4.39 4.548 4.548 0 0 0-3.881 1.202l-2.194 2.194z" fill="#CDCDCD"/>
</svg>
