<svg width="current" height="current" viewBox="0 0 17 16" fill="none" xmlns="http://www.w3.org/2000/svg">
    <path d="M12.5 2.987a5.657 5.657 0 1 0-8 8l3.513 3.52a.666.666 0 0 0 .947 0l3.54-3.554a5.634 5.634 0 0 0 0-7.966zM11.547 10 8.5 13.06 5.453 10a4.307 4.307 0 1 1 6.094 0zM6.5 4.94a2.88 2.88 0 0 0 1.464 4.853 2.873 2.873 0 0 0 3.443-2.786 2.826 2.826 0 0 0-.84-2.034A2.866 2.866 0 0 0 6.5 4.94zm3.127 3.12a1.553 1.553 0 1 1 .446-1.087c-.01.412-.182.803-.48 1.087h.034z" fill="#F24125"/>
</svg>
