<svg width="current" height="current" viewBox="0 0 16 16" fill="none" xmlns="http://www.w3.org/2000/svg">
    <path d="M12.667 4.333h-.854l-.213-.666a2 2 0 0 0-1.893-1.334H6.293A2 2 0 0 0 4.4 3.7l-.213.667h-.854a2 2 0 0 0-2 2V11.7a2 2 0 0 0 2 2h9.334a2 2 0 0 0 2-2V6.367a1.999 1.999 0 0 0-2-2.034zm.667 7.334a.666.666 0 0 1-.667.666H3.333a.667.667 0 0 1-.666-.666V6.333a.667.667 0 0 1 .667-.666h1.333a.667.667 0 0 0 .667-.454l.36-1.093a.667.667 0 0 1 .633-.453H9.74a.666.666 0 0 1 .633.453l.36 1.093a.667.667 0 0 0 .6.454h1.334a.667.667 0 0 1 .667.666v5.334zM8 5.667A2.667 2.667 0 1 0 8 11a2.667 2.667 0 0 0 0-5.333zm0 4A1.333 1.333 0 1 1 8 7a1.333 1.333 0 0 1 0 2.667z" fill="#707070"/>
</svg>
