<svg width="current" height="current" viewBox="0 0 24 24" fill="none" xmlns="http://www.w3.org/2000/svg">
    <g filter="url(#6npq6vquha)">
        <path d="M9.201 3.869a2.467 2.467 0 1 1 4.933 0v2.838c0 .242-.017.483-.055.725a4.594 4.594 0 0 0-.035.264c-.027.277.006.64.195.885l-.452.435a7.004 7.004 0 0 1 3.811 6.244c.001.719-.108 1.434-.324 2.119l-.748 4.88h-6.075v-.002c-3.753-.081-6.763-2.527-6.763-6.998 0-2.626 1.258-4.741 3.16-5.933l-.004-.004c.13-.09.283-.182.446-.28h.002c.54-.325 1.2-.72 1.547-1.367.302-.56.36-1.47.36-1.892h.002V3.869z" fill="url(#epw27vsdnb)"/>
    </g>
    <path d="M9.201 3.869a2.467 2.467 0 1 1 4.933 0v2.838c0 .242-.017.483-.055.725a4.594 4.594 0 0 0-.035.264c-.027.277.006.64.195.885l-.452.435a7.004 7.004 0 0 1 3.811 6.244c.001.719-.108 1.434-.324 2.119l-.748 4.88h-6.075v-.002c-3.753-.081-6.763-2.527-6.763-6.998 0-2.626 1.258-4.741 3.16-5.933l-.004-.004c.13-.09.283-.182.446-.28h.002c.54-.325 1.2-.72 1.547-1.367.302-.56.36-1.47.36-1.892h.002V3.869z" fill="url(#tiziij5oec)"/>
    <path d="M9.201 3.869a2.467 2.467 0 1 1 4.933 0v2.838c0 .242-.017.483-.055.725a4.594 4.594 0 0 0-.035.264c-.027.277.006.64.195.885l-.452.435a7.004 7.004 0 0 1 3.811 6.244c.001.719-.108 1.434-.324 2.119l-.748 4.88h-6.075v-.002c-3.753-.081-6.763-2.527-6.763-6.998 0-2.626 1.258-4.741 3.16-5.933l-.004-.004c.13-.09.283-.182.446-.28h.002c.54-.325 1.2-.72 1.547-1.367.302-.56.36-1.47.36-1.892h.002V3.869z" fill="url(#2wzztf1ctd)"/>
    <path d="M9.201 3.869a2.467 2.467 0 1 1 4.933 0v2.838c0 .242-.017.483-.055.725a4.594 4.594 0 0 0-.035.264c-.027.277.006.64.195.885l-.452.435a7.004 7.004 0 0 1 3.811 6.244c.001.719-.108 1.434-.324 2.119l-.748 4.88h-6.075v-.002c-3.753-.081-6.763-2.527-6.763-6.998 0-2.626 1.258-4.741 3.16-5.933l-.004-.004c.13-.09.283-.182.446-.28h.002c.54-.325 1.2-.72 1.547-1.367.302-.56.36-1.47.36-1.892h.002V3.869z" fill="url(#ow9pe62zde)"/>
    <path d="M9.201 3.869a2.467 2.467 0 1 1 4.933 0v2.838c0 .242-.017.483-.055.725a4.594 4.594 0 0 0-.035.264c-.027.277.006.64.195.885l-.452.435a7.004 7.004 0 0 1 3.811 6.244c.001.719-.108 1.434-.324 2.119l-.748 4.88h-6.075v-.002c-3.753-.081-6.763-2.527-6.763-6.998 0-2.626 1.258-4.741 3.16-5.933l-.004-.004c.13-.09.283-.182.446-.28h.002c.54-.325 1.2-.72 1.547-1.367.302-.56.36-1.47.36-1.892h.002V3.869z" fill="url(#62grg5mjtf)"/>
    <g filter="url(#gt9uqbx9xg)">
        <path d="M17.76 11.032a1.914 1.914 0 0 0-1.915-1.914h-2.12a1.914 1.914 0 0 0-1.228 3.381 1.917 1.917 0 0 0-.087 2.994 1.91 1.91 0 0 0-.675 1.46v.095c0 .525.21 1 .552 1.345a1.863 1.863 0 0 0 1.309 3.186h2.103a1.862 1.862 0 0 0 1.612-2.796 1.913 1.913 0 0 0 1.105-1.736v-.093c0-.593-.269-1.122-.692-1.473a1.92 1.92 0 0 0-.44-3.187c.307-.349.476-.798.475-1.262z" fill="url(#vubbqzkvmh)"/>
    </g>
    <g filter="url(#iz2jvn6v9i)">
        <path d="M17.285 12.412a2.183 2.183 0 0 0 0-4.364h-2.417a2.183 2.183 0 0 0 0 4.364h2.417z" fill="url(#8ho49xkx1j)"/>
        <path d="M17.285 12.412a2.183 2.183 0 0 0 0-4.364h-2.417a2.183 2.183 0 0 0 0 4.364h2.417z" fill="url(#0op4nf5ptk)"/>
    </g>
    <g filter="url(#5lt6ezz7tl)">
        <path d="M17.12 22.26a2.124 2.124 0 0 0 0-4.249H14.72a2.124 2.124 0 0 0 0 4.248h2.398z" fill="url(#avo2ede81m)"/>
        <path d="M17.12 22.26a2.124 2.124 0 0 0 0-4.249H14.72a2.124 2.124 0 0 0 0 4.248h2.398z" fill="url(#x1t9vuu6fn)"/>
        <path d="M17.12 22.26a2.124 2.124 0 0 0 0-4.249H14.72a2.124 2.124 0 0 0 0 4.248h2.398z" fill="url(#781h0x738o)"/>
    </g>
    <path d="M17.12 22.26a2.124 2.124 0 0 0 0-4.249H14.72a2.124 2.124 0 0 0 0 4.248h2.398z" fill="url(#w58vfe2mxp)"/>
    <path d="M17.12 22.26a2.124 2.124 0 0 0 0-4.249H14.72a2.124 2.124 0 0 0 0 4.248h2.398z" fill="url(#sv4c4rvz0q)"/>
    <g filter="url(#wbsgaz85kr)">
        <path d="M18.19 19.274h-2.92a.553.553 0 1 0 0 1.107h2.92a.553.553 0 1 0 0-1.107z" fill="url(#ffozq7tees)"/>
    </g>
    <path d="M17.98 19.274a2.236 2.236 0 1 0 0-4.473h-3.146a2.236 2.236 0 1 0 0 4.473h3.146z" fill="#C4C4C4" fill-opacity=".66"/>
    <g filter="url(#te1t924zht)">
        <path d="M20.216 17.092v-.108a2.182 2.182 0 0 0-2.182-2.183H14.78a2.182 2.182 0 0 0-2.183 2.183v.108c0 1.205.977 2.182 2.183 2.182h3.254a2.183 2.183 0 0 0 2.182-2.182z" fill="url(#y2rcg908ru)"/>
        <path d="M20.216 17.092v-.108a2.182 2.182 0 0 0-2.182-2.183H14.78a2.182 2.182 0 0 0-2.183 2.183v.108c0 1.205.977 2.182 2.183 2.182h3.254a2.183 2.183 0 0 0 2.182-2.182z" fill="url(#h2l1tsoilv)"/>
        <path d="M20.216 17.092v-.108a2.182 2.182 0 0 0-2.182-2.183H14.78a2.182 2.182 0 0 0-2.183 2.183v.108c0 1.205.977 2.182 2.183 2.182h3.254a2.183 2.183 0 0 0 2.182-2.182z" fill="url(#4mg18cxmrw)"/>
    </g>
    <g filter="url(#lcgu1vkc2x)">
        <path d="M18.915 16.372h-3.937a.553.553 0 1 0 0 1.107h3.937a.553.553 0 1 0 0-1.107z" fill="url(#yxlfq3i4hy)"/>
    </g>
    <g filter="url(#h4iuenxxnz)">
        <path d="M20.183 13.655v-.01A2.183 2.183 0 0 0 18 11.463h-3.22a2.183 2.183 0 0 0-2.183 2.183v.01c0 1.205.977 2.182 2.183 2.182H18a2.183 2.183 0 0 0 2.183-2.183z" fill="url(#gf3hm4vckA)"/>
        <path d="M20.183 13.655v-.01A2.183 2.183 0 0 0 18 11.463h-3.22a2.183 2.183 0 0 0-2.183 2.183v.01c0 1.205.977 2.182 2.183 2.182H18a2.183 2.183 0 0 0 2.183-2.183z" fill="url(#qzmyt6igwB)"/>
    </g>
    <path d="M11.667 1.403a2.467 2.467 0 0 0-2.466 2.466v1.914h-.002c0 .421-.058 1.332-.36 1.892-.348.647-1.008 1.042-1.548 1.366-.165.099-.318.19-.447.28.746.598 2.274 1.793 2.311 1.764.869-.47 1.74-.935 2.613-1.395l-.036-.517a2.467 2.467 0 0 0 2.402-2.466V3.87a2.466 2.466 0 0 0-2.467-2.466z" fill="url(#hc4u1w810C)"/>
    <path d="M11.667 1.403a2.467 2.467 0 0 0-2.466 2.466v1.914h-.002c0 .421-.058 1.332-.36 1.892-.348.647-1.008 1.042-1.548 1.366-.165.099-.318.19-.447.28.746.598 2.274 1.793 2.311 1.764.869-.47 1.74-.935 2.613-1.395l-.036-.517a2.467 2.467 0 0 0 2.402-2.466V3.87a2.466 2.466 0 0 0-2.467-2.466z" fill="url(#gko9bamwrD)"/>
    <path d="M10.107 1.958a2.461 2.461 0 0 0-.906 1.91v.145h1.115a4.766 4.766 0 0 0-.065-.861l-.013-.069c-.061-.336-.132-.72-.13-1.125z" fill="#FFBF71"/>
    <path d="M10.107 1.958a2.461 2.461 0 0 0-.906 1.91v.145h1.115a4.766 4.766 0 0 0-.065-.861l-.013-.069c-.061-.336-.132-.72-.13-1.125z" fill="url(#4dktr12ahE)"/>
    <g filter="url(#zlqagkdzrF)">
        <path d="M17.8 8.643h-2.714a.943.943 0 1 0 0 1.887H17.8a.943.943 0 1 0 0-1.887z" fill="url(#swou1jv9bG)"/>
    </g>
    <g filter="url(#is4wgvt1qH)">
        <path d="M18.524 12h-3.492a.943.943 0 1 0 0 1.887h3.492a.944.944 0 0 0 0-1.887z" fill="url(#69tuz9wjjI)"/>
    </g>
    <g filter="url(#8mygunbfeJ)">
        <path d="M13.511 3.409a1.075 1.075 0 1 0-2.148 0v3.848a1.075 1.075 0 1 0 2.149 0V3.409z" fill="url(#ogsomrtp8K)"/>
    </g>
    <defs>
        <radialGradient id="tiziij5oec" cx="0" cy="0" r="1" gradientUnits="userSpaceOnUse" gradientTransform="matrix(-2.9282 2.36141 -6.9696 -8.64247 15.33 3.634)">
            <stop stop-color="#FFE34C"/>
            <stop offset="1" stop-color="#FFE34C" stop-opacity="0"/>
        </radialGradient>
        <radialGradient id="2wzztf1ctd" cx="0" cy="0" r="1" gradientUnits="userSpaceOnUse" gradientTransform="rotate(125.191 1.174 8.114) scale(5.57266 4.03692)">
            <stop stop-color="#FFCA2E"/>
            <stop offset="1" stop-color="#FFCA2E" stop-opacity="0"/>
        </radialGradient>
        <radialGradient id="ow9pe62zde" cx="0" cy="0" r="1" gradientUnits="userSpaceOnUse" gradientTransform="rotate(146.743 5.233 8.969) scale(12.143 21.2507)">
            <stop offset=".681" stop-color="#E18E3F" stop-opacity="0"/>
            <stop offset="1" stop-color="#E18E3F"/>
        </radialGradient>
        <radialGradient id="0op4nf5ptk" cx="0" cy="0" r="1" gradientUnits="userSpaceOnUse" gradientTransform="matrix(-1.38355 -1.05654 .70722 -.9261 13.788 12.165)">
            <stop stop-color="#D98320"/>
            <stop offset="1" stop-color="#D98320" stop-opacity="0"/>
        </radialGradient>
        <radialGradient id="x1t9vuu6fn" cx="0" cy="0" r="1" gradientUnits="userSpaceOnUse" gradientTransform="matrix(5.4851 0 0 2.08666 13.944 22.259)">
            <stop stop-color="#F29545"/>
            <stop offset="1" stop-color="#F29545" stop-opacity="0"/>
        </radialGradient>
        <radialGradient id="781h0x738o" cx="0" cy="0" r="1" gradientUnits="userSpaceOnUse" gradientTransform="matrix(5.56268 0 0 1.49322 13.68 18.756)">
            <stop stop-color="#DA810B"/>
            <stop offset="1" stop-color="#FFB610" stop-opacity="0"/>
        </radialGradient>
        <radialGradient id="sv4c4rvz0q" cx="0" cy="0" r="1" gradientUnits="userSpaceOnUse" gradientTransform="matrix(4.20243 0 0 6.31702 11.718 20.134)">
            <stop stop-color="#E38811"/>
            <stop offset="1" stop-color="#E38811" stop-opacity="0"/>
        </radialGradient>
        <radialGradient id="h2l1tsoilv" cx="0" cy="0" r="1" gradientUnits="userSpaceOnUse" gradientTransform="matrix(6.28888 0 0 2.19725 14.14 19.274)">
            <stop stop-color="#F29545"/>
            <stop offset="1" stop-color="#F29545" stop-opacity="0"/>
        </radialGradient>
        <radialGradient id="4mg18cxmrw" cx="0" cy="0" r="1" gradientUnits="userSpaceOnUse" gradientTransform="matrix(6.37782 0 0 1.57236 13.838 15.586)">
            <stop stop-color="#DA810B"/>
            <stop offset="1" stop-color="#FFB610" stop-opacity="0"/>
        </radialGradient>
        <radialGradient id="qzmyt6igwB" cx="0" cy="0" r="1" gradientUnits="userSpaceOnUse" gradientTransform="matrix(4.1255 0 0 1.83635 14.166 15.309)">
            <stop stop-color="#F29545"/>
            <stop offset="1" stop-color="#F29545" stop-opacity="0"/>
        </radialGradient>
        <radialGradient id="hc4u1w810C" cx="0" cy="0" r="1" gradientUnits="userSpaceOnUse" gradientTransform="matrix(0 4.7701 -1.77107 0 9.403 3.633)">
            <stop stop-color="#F3A52A"/>
            <stop offset="1" stop-color="#F3A52A" stop-opacity="0"/>
        </radialGradient>
        <radialGradient id="gko9bamwrD" cx="0" cy="0" r="1" gradientUnits="userSpaceOnUse" gradientTransform="matrix(1.74746 1.62939 -2.46554 2.6442 8.01 6.774)">
            <stop stop-color="#CDA25E"/>
            <stop offset="1" stop-color="#CDA25E" stop-opacity="0"/>
        </radialGradient>
        <radialGradient id="4dktr12ahE" cx="0" cy="0" r="1" gradientUnits="userSpaceOnUse" gradientTransform="matrix(-1.20433 -.24796 .54123 -2.62873 10.49 3.338)">
            <stop offset=".55" stop-color="#CCB28B" stop-opacity="0"/>
            <stop offset="1" stop-color="#CCB28B"/>
        </radialGradient>
        <linearGradient id="epw27vsdnb" x1="14.441" y1="4.979" x2="6.893" y2="20.87" gradientUnits="userSpaceOnUse">
            <stop stop-color="#FFCA44"/>
            <stop offset="1" stop-color="#F8A528"/>
        </linearGradient>
        <linearGradient id="62grg5mjtf" x1="10.643" y1="19.172" x2="10.643" y2="22.997" gradientUnits="userSpaceOnUse">
            <stop stop-color="#D8796F" stop-opacity="0"/>
            <stop offset="1" stop-color="#D8796F"/>
        </linearGradient>
        <linearGradient id="vubbqzkvmh" x1="15.075" y1="9.118" x2="15.075" y2="19.084" gradientUnits="userSpaceOnUse">
            <stop stop-color="#D1730B"/>
            <stop offset="1" stop-color="#E27D47"/>
        </linearGradient>
        <linearGradient id="8ho49xkx1j" x1="19.468" y1="10.23" x2="12.685" y2="10.23" gradientUnits="userSpaceOnUse">
            <stop stop-color="#FFDB44"/>
            <stop offset="1" stop-color="#F9A928"/>
        </linearGradient>
        <linearGradient id="avo2ede81m" x1="18.661" y1="20.134" x2="12.597" y2="20.134" gradientUnits="userSpaceOnUse">
            <stop stop-color="#FFDB44"/>
            <stop offset="1" stop-color="#F9A928"/>
        </linearGradient>
        <linearGradient id="w58vfe2mxp" x1="15.92" y1="22.697" x2="15.92" y2="21.323" gradientUnits="userSpaceOnUse">
            <stop stop-color="#DC7C6A"/>
            <stop offset="1" stop-color="#DC7C6A" stop-opacity="0"/>
        </linearGradient>
        <linearGradient id="ffozq7tees" x1="18.535" y1="19.577" x2="14.193" y2="19.577" gradientUnits="userSpaceOnUse">
            <stop stop-color="#FFF166"/>
            <stop offset="1" stop-color="#FFF166" stop-opacity="0"/>
        </linearGradient>
        <linearGradient id="y2rcg908ru" x1="19.549" y1="17.038" x2="12.597" y2="17.038" gradientUnits="userSpaceOnUse">
            <stop stop-color="#FFDB44"/>
            <stop offset="1" stop-color="#F9A928"/>
        </linearGradient>
        <linearGradient id="yxlfq3i4hy" x1="19.206" y1="16.675" x2="13.77" y2="16.675" gradientUnits="userSpaceOnUse">
            <stop stop-color="#FFF166"/>
            <stop offset="1" stop-color="#FFF166" stop-opacity="0"/>
        </linearGradient>
        <linearGradient id="gf3hm4vckA" x1="20.183" y1="13.651" x2="12.598" y2="13.651" gradientUnits="userSpaceOnUse">
            <stop stop-color="#FFDB44"/>
            <stop offset="1" stop-color="#F9A928"/>
        </linearGradient>
        <linearGradient id="swou1jv9bG" x1="18.505" y1="9.161" x2="13.544" y2="9.161" gradientUnits="userSpaceOnUse">
            <stop stop-color="#FFF166"/>
            <stop offset="1" stop-color="#FFF166" stop-opacity="0"/>
        </linearGradient>
        <linearGradient id="69tuz9wjjI" x1="19.188" y1="12.518" x2="13.39" y2="12.518" gradientUnits="userSpaceOnUse">
            <stop stop-color="#FFF166"/>
            <stop offset="1" stop-color="#FFF166" stop-opacity="0"/>
        </linearGradient>
        <linearGradient id="ogsomrtp8K" x1="13.4" y1="3.979" x2="11.084" y2="3.979" gradientUnits="userSpaceOnUse">
            <stop stop-color="#FFF166"/>
            <stop offset="1" stop-color="#FFF166" stop-opacity="0"/>
        </linearGradient>
        <filter id="6npq6vquha" x="3.688" y="1.359" width="14.41" height="20.901" filterUnits="userSpaceOnUse" color-interpolation-filters="sRGB">
            <feFlood flood-opacity="0" result="BackgroundImageFix"/>
            <feBlend in="SourceGraphic" in2="BackgroundImageFix" result="shape"/>
            <feColorMatrix in="SourceAlpha" values="0 0 0 0 0 0 0 0 0 0 0 0 0 0 0 0 0 0 127 0" result="hardAlpha"/>
            <feOffset dx=".5"/>
            <feGaussianBlur stdDeviation="1"/>
            <feComposite in2="hardAlpha" operator="arithmetic" k2="-1" k3="1"/>
            <feColorMatrix values="0 0 0 0 0.847059 0 0 0 0 0.458824 0 0 0 0 0.360784 0 0 0 1 0"/>
            <feBlend in2="shape" result="effect1_innerShadow_202_27917"/>
        </filter>
        <filter id="gt9uqbx9xg" x="9.733" y="7.118" width="10.682" height="16.461" filterUnits="userSpaceOnUse" color-interpolation-filters="sRGB">
            <feFlood flood-opacity="0" result="BackgroundImageFix"/>
            <feBlend in="SourceGraphic" in2="BackgroundImageFix" result="shape"/>
            <feGaussianBlur stdDeviation="1" result="effect1_foregroundBlur_202_27917"/>
        </filter>
        <filter id="iz2jvn6v9i" x="12.685" y="8.048" width="7.282" height="4.365" filterUnits="userSpaceOnUse" color-interpolation-filters="sRGB">
            <feFlood flood-opacity="0" result="BackgroundImageFix"/>
            <feBlend in="SourceGraphic" in2="BackgroundImageFix" result="shape"/>
            <feColorMatrix in="SourceAlpha" values="0 0 0 0 0 0 0 0 0 0 0 0 0 0 0 0 0 0 127 0" result="hardAlpha"/>
            <feOffset dx=".5"/>
            <feGaussianBlur stdDeviation=".75"/>
            <feComposite in2="hardAlpha" operator="arithmetic" k2="-1" k3="1"/>
            <feColorMatrix values="0 0 0 0 0.878431 0 0 0 0 0.541176 0 0 0 0 0.0627451 0 0 0 1 0"/>
            <feBlend in2="shape" result="effect1_innerShadow_202_27917"/>
        </filter>
        <filter id="5lt6ezz7tl" x="12.598" y="17.511" width="7.146" height="4.748" filterUnits="userSpaceOnUse" color-interpolation-filters="sRGB">
            <feFlood flood-opacity="0" result="BackgroundImageFix"/>
            <feBlend in="SourceGraphic" in2="BackgroundImageFix" result="shape"/>
            <feColorMatrix in="SourceAlpha" values="0 0 0 0 0 0 0 0 0 0 0 0 0 0 0 0 0 0 127 0" result="hardAlpha"/>
            <feOffset dx=".5" dy="-.5"/>
            <feGaussianBlur stdDeviation=".75"/>
            <feComposite in2="hardAlpha" operator="arithmetic" k2="-1" k3="1"/>
            <feColorMatrix values="0 0 0 0 0.941176 0 0 0 0 0.643137 0 0 0 0 0.215686 0 0 0 1 0"/>
            <feBlend in2="shape" result="effect1_innerShadow_202_27917"/>
        </filter>
        <filter id="wbsgaz85kr" x="13.467" y="18.024" width="6.527" height="3.607" filterUnits="userSpaceOnUse" color-interpolation-filters="sRGB">
            <feFlood flood-opacity="0" result="BackgroundImageFix"/>
            <feBlend in="SourceGraphic" in2="BackgroundImageFix" result="shape"/>
            <feGaussianBlur stdDeviation=".625" result="effect1_foregroundBlur_202_27917"/>
        </filter>
        <filter id="te1t924zht" x="12.597" y="14.301" width="8.119" height="4.973" filterUnits="userSpaceOnUse" color-interpolation-filters="sRGB">
            <feFlood flood-opacity="0" result="BackgroundImageFix"/>
            <feBlend in="SourceGraphic" in2="BackgroundImageFix" result="shape"/>
            <feColorMatrix in="SourceAlpha" values="0 0 0 0 0 0 0 0 0 0 0 0 0 0 0 0 0 0 127 0" result="hardAlpha"/>
            <feOffset dx=".5" dy="-.5"/>
            <feGaussianBlur stdDeviation=".75"/>
            <feComposite in2="hardAlpha" operator="arithmetic" k2="-1" k3="1"/>
            <feColorMatrix values="0 0 0 0 0.941176 0 0 0 0 0.643137 0 0 0 0 0.215686 0 0 0 1 0"/>
            <feBlend in2="shape" result="effect1_innerShadow_202_27917"/>
        </filter>
        <filter id="lcgu1vkc2x" x="13.174" y="15.122" width="7.544" height="3.607" filterUnits="userSpaceOnUse" color-interpolation-filters="sRGB">
            <feFlood flood-opacity="0" result="BackgroundImageFix"/>
            <feBlend in="SourceGraphic" in2="BackgroundImageFix" result="shape"/>
            <feGaussianBlur stdDeviation=".625" result="effect1_foregroundBlur_202_27917"/>
        </filter>
        <filter id="h4iuenxxnz" x="12.597" y="10.963" width="8.085" height="4.875" filterUnits="userSpaceOnUse" color-interpolation-filters="sRGB">
            <feFlood flood-opacity="0" result="BackgroundImageFix"/>
            <feBlend in="SourceGraphic" in2="BackgroundImageFix" result="shape"/>
            <feColorMatrix in="SourceAlpha" values="0 0 0 0 0 0 0 0 0 0 0 0 0 0 0 0 0 0 127 0" result="hardAlpha"/>
            <feOffset dx=".5" dy="-.5"/>
            <feGaussianBlur stdDeviation=".75"/>
            <feComposite in2="hardAlpha" operator="arithmetic" k2="-1" k3="1"/>
            <feColorMatrix values="0 0 0 0 0.941176 0 0 0 0 0.643137 0 0 0 0 0.215686 0 0 0 1 0"/>
            <feBlend in2="shape" result="effect1_innerShadow_202_27917"/>
        </filter>
        <filter id="zlqagkdzrF" x="12.892" y="7.393" width="7.102" height="4.387" filterUnits="userSpaceOnUse" color-interpolation-filters="sRGB">
            <feFlood flood-opacity="0" result="BackgroundImageFix"/>
            <feBlend in="SourceGraphic" in2="BackgroundImageFix" result="shape"/>
            <feGaussianBlur stdDeviation=".625" result="effect1_foregroundBlur_202_27917"/>
        </filter>
        <filter id="is4wgvt1qH" x="12.839" y="10.75" width="7.879" height="4.387" filterUnits="userSpaceOnUse" color-interpolation-filters="sRGB">
            <feFlood flood-opacity="0" result="BackgroundImageFix"/>
            <feBlend in="SourceGraphic" in2="BackgroundImageFix" result="shape"/>
            <feGaussianBlur stdDeviation=".625" result="effect1_foregroundBlur_202_27917"/>
        </filter>
        <filter id="8mygunbfeJ" x="10.113" y="1.084" width="4.649" height="8.498" filterUnits="userSpaceOnUse" color-interpolation-filters="sRGB">
            <feFlood flood-opacity="0" result="BackgroundImageFix"/>
            <feBlend in="SourceGraphic" in2="BackgroundImageFix" result="shape"/>
            <feGaussianBlur stdDeviation=".625" result="effect1_foregroundBlur_202_27917"/>
        </filter>
    </defs>
</svg>
