<svg width="current" height="current" viewBox="0 0 24 24" fill="none" xmlns="http://www.w3.org/2000/svg">
    <path d="M12 22.498c7 0 10.498-4.7 10.498-10.5C22.498 6.202 19 1.5 11.998 1.5 4.998 1.5 1.5 6.201 1.5 12c0 5.797 3.498 10.498 10.5 10.498z" fill="url(#vy940snfha)"/>
    <path d="M12 22.498c7 0 10.498-4.7 10.498-10.5C22.498 6.202 19 1.5 11.998 1.5 4.998 1.5 1.5 6.201 1.5 12c0 5.797 3.498 10.498 10.5 10.498z" fill="url(#ux76avgcqb)"/>
    <path d="M12 22.498c7 0 10.498-4.7 10.498-10.5C22.498 6.202 19 1.5 11.998 1.5 4.998 1.5 1.5 6.201 1.5 12c0 5.797 3.498 10.498 10.5 10.498z" fill="url(#k0jpdxqekc)"/>
    <path d="M12 22.498c7 0 10.498-4.7 10.498-10.5C22.498 6.202 19 1.5 11.998 1.5 4.998 1.5 1.5 6.201 1.5 12c0 5.797 3.498 10.498 10.5 10.498z" fill="url(#w379xhsjdd)" fill-opacity=".6"/>
    <path d="M12 22.498c7 0 10.498-4.7 10.498-10.5C22.498 6.202 19 1.5 11.998 1.5 4.998 1.5 1.5 6.201 1.5 12c0 5.797 3.498 10.498 10.5 10.498z" fill="url(#nmc9xexade)"/>
    <path d="M12 22.498c7 0 10.498-4.7 10.498-10.5C22.498 6.202 19 1.5 11.998 1.5 4.998 1.5 1.5 6.201 1.5 12c0 5.797 3.498 10.498 10.5 10.498z" fill="url(#h651sqqalf)"/>
    <path d="M12 22.498c7 0 10.498-4.7 10.498-10.5C22.498 6.202 19 1.5 11.998 1.5 4.998 1.5 1.5 6.201 1.5 12c0 5.797 3.498 10.498 10.5 10.498z" fill="url(#b5ucwepizg)"/>
    <path d="M12 22.498c7 0 10.498-4.7 10.498-10.5C22.498 6.202 19 1.5 11.998 1.5 4.998 1.5 1.5 6.201 1.5 12c0 5.797 3.498 10.498 10.5 10.498z" fill="url(#id84h4x3vh)"/>
    <path d="M6.763 15.82a3.505 3.505 0 1 0 0-7.01 3.505 3.505 0 0 0 0 7.01z" fill="url(#wsltcqtdpi)"/>
    <path d="M14.433 15.89a3.183 3.183 0 1 0 0-6.366 3.183 3.183 0 0 0 0 6.366z" fill="url(#fovkp7fpwj)"/>
    <path d="M7.815 14.418a3.154 3.154 0 1 0 .097-6.307 3.154 3.154 0 0 0-.097 6.307zm8.36.058a3.184 3.184 0 1 0 0-6.369 3.184 3.184 0 0 0 0 6.37v-.001z" fill="#fff"/>
    <path d="M8.25 13.5a2.25 2.25 0 1 0 0-4.5 2.25 2.25 0 0 0 0 4.5z" fill="url(#6i5hzzlzdk)"/>
    <path d="M15.75 13.5a2.25 2.25 0 1 0 0-4.5 2.25 2.25 0 0 0 0 4.5z" fill="url(#08q5em41ll)"/>
    <path d="M4.875 7.875c.25-.75 1.2-2.25 3-2.25" stroke="url(#bnhc9ktgim)" stroke-linecap="round" stroke-linejoin="round"/>
    <path d="M19.125 7.875c-.25-.75-1.2-2.25-3-2.25" stroke="url(#7a05gd0son)" stroke-linecap="round" stroke-linejoin="round"/>
    <path d="M9.75 17.25s.75-.75 2.25-.75 2.25.75 2.25.75" stroke="url(#zlwzqhgrno)" stroke-width="2" stroke-linecap="round"/>
    <path d="M6.75 16.5a1.5 1.5 0 0 0-3 0v2.25a1.5 1.5 0 0 0 3 0V16.5z" fill="url(#asxim2pr9p)"/>
    <path d="M7.5 15.75a1.5 1.5 0 0 0-3 0V18a1.5 1.5 0 0 0 3 0v-2.25z" fill="url(#pvq14thudq)"/>
    <defs>
        <radialGradient id="vy940snfha" cx="0" cy="0" r="1" gradientUnits="userSpaceOnUse" gradientTransform="rotate(132.839 8.09 7.549) scale(28.1275)">
            <stop stop-color="#FFF478"/>
            <stop offset=".475" stop-color="#FFB02E"/>
            <stop offset="1" stop-color="#F70A8D"/>
        </radialGradient>
        <radialGradient id="ux76avgcqb" cx="0" cy="0" r="1" gradientUnits="userSpaceOnUse" gradientTransform="rotate(131.878 8.055 7.645) scale(29.2115)">
            <stop stop-color="#FFF478"/>
            <stop offset=".475" stop-color="#FFB02E"/>
            <stop offset="1" stop-color="#F70A8D"/>
        </radialGradient>
        <radialGradient id="k0jpdxqekc" cx="0" cy="0" r="1" gradientUnits="userSpaceOnUse" gradientTransform="matrix(-2.62501 13.12497 -16.81068 -3.36216 12 9.375)">
            <stop offset=".788" stop-color="#F59639" stop-opacity="0"/>
            <stop offset=".973" stop-color="#FF7DCE"/>
        </radialGradient>
        <radialGradient id="w379xhsjdd" cx="0" cy="0" r="1" gradientUnits="userSpaceOnUse" gradientTransform="rotate(135 4.575 8.046) scale(30.7591)">
            <stop offset=".315" stop-opacity="0"/>
            <stop offset="1"/>
        </radialGradient>
        <radialGradient id="nmc9xexade" cx="0" cy="0" r="1" gradientUnits="userSpaceOnUse" gradientTransform="matrix(4.5 20.625 -20.625 4.5 12 12.75)">
            <stop offset=".508" stop-color="#7D6133" stop-opacity="0"/>
            <stop offset="1" stop-color="#715B32"/>
        </radialGradient>
        <radialGradient id="h651sqqalf" cx="0" cy="0" r="1" gradientUnits="userSpaceOnUse" gradientTransform="rotate(55.713 -5.52 17.895) scale(9.98512 7.23774)">
            <stop stop-color="#FFB849"/>
            <stop offset="1" stop-color="#FFB847" stop-opacity="0"/>
        </radialGradient>
        <radialGradient id="b5ucwepizg" cx="0" cy="0" r="1" gradientUnits="userSpaceOnUse" gradientTransform="rotate(9.866 -70.52 95.82) scale(8.75445)">
            <stop stop-color="#FFA64B"/>
            <stop offset=".9" stop-color="#FFAE46" stop-opacity="0"/>
        </radialGradient>
        <radialGradient id="id84h4x3vh" cx="0" cy="0" r="1" gradientUnits="userSpaceOnUse" gradientTransform="rotate(43.971 -7.37 21.88) scale(44.2897)">
            <stop offset=".185" stop-opacity="0"/>
            <stop offset="1" stop-opacity=".4"/>
        </radialGradient>
        <radialGradient id="wsltcqtdpi" cx="0" cy="0" r="1" gradientUnits="userSpaceOnUse" gradientTransform="matrix(-4.82907 4.82907 -2.49937 -2.49937 9.489 9.59)">
            <stop stop-color="#392108"/>
            <stop offset="1" stop-color="#C87928" stop-opacity="0"/>
        </radialGradient>
        <radialGradient id="fovkp7fpwj" cx="0" cy="0" r="1" gradientUnits="userSpaceOnUse" gradientTransform="matrix(-4.06746 4.06746 -2.29615 -2.29615 16.908 10.231)">
            <stop stop-color="#392108"/>
            <stop offset="1" stop-color="#C87928" stop-opacity="0"/>
        </radialGradient>
        <radialGradient id="asxim2pr9p" cx="0" cy="0" r="1" gradientUnits="userSpaceOnUse" gradientTransform="matrix(-1.125 4.125 -1.8199 -.49633 5.813 15.938)">
            <stop stop-color="#392108"/>
            <stop offset="1" stop-color="#C87928" stop-opacity="0"/>
        </radialGradient>
        <radialGradient id="pvq14thudq" cx="0" cy="0" r="1" gradientUnits="userSpaceOnUse" gradientTransform="matrix(-1.49998 5.48864 -2.1356 -.58363 7 14.49)">
            <stop stop-color="#5C98FF"/>
            <stop offset=".806" stop-color="#3D5BF1"/>
            <stop offset=".962" stop-color="#6065CA"/>
        </radialGradient>
        <linearGradient id="6i5hzzlzdk" x1="12.375" y1="8.25" x2="11.625" y2="13.5" gradientUnits="userSpaceOnUse">
            <stop stop-color="#553B3E"/>
            <stop offset="1" stop-color="#3D2432"/>
        </linearGradient>
        <linearGradient id="08q5em41ll" x1="12.375" y1="8.25" x2="11.625" y2="13.5" gradientUnits="userSpaceOnUse">
            <stop stop-color="#553B3E"/>
            <stop offset="1" stop-color="#3D2432"/>
        </linearGradient>
        <linearGradient id="bnhc9ktgim" x1="5.125" y1="8.55" x2="5.125" y2="7.2" gradientUnits="userSpaceOnUse">
            <stop offset=".03" stop-color="#524049"/>
            <stop offset="1" stop-color="#4A2C42"/>
        </linearGradient>
        <linearGradient id="7a05gd0son" x1="18.875" y1="8.55" x2="18.875" y2="7.2" gradientUnits="userSpaceOnUse">
            <stop offset=".03" stop-color="#524049"/>
            <stop offset="1" stop-color="#4A2C42"/>
        </linearGradient>
        <linearGradient id="zlwzqhgrno" x1="12" y1="15" x2="12" y2="16.5" gradientUnits="userSpaceOnUse">
            <stop stop-color="#4F3C43"/>
            <stop offset="1" stop-color="#512756"/>
        </linearGradient>
    </defs>
</svg>
