<svg width="24" height="24" viewBox="0 0 24 24" fill="none" xmlns="http://www.w3.org/2000/svg">
    <path d="M19.423 19.424c4.95-4.95 4.1-10.747 0-14.848-4.1-4.1-9.898-4.95-14.848 0-4.95 4.95-4.1 10.747 0 14.848 4.1 4.1 9.898 4.95 14.848 0z" fill="url(#927xb4oeda)"/>
    <path d="M19.423 19.424c4.95-4.95 4.1-10.747 0-14.848-4.1-4.1-9.898-4.95-14.848 0-4.95 4.95-4.1 10.747 0 14.848 4.1 4.1 9.898 4.95 14.848 0z" fill="url(#bycdixx3wb)"/>
    <path d="M19.423 19.424c4.95-4.95 4.1-10.747 0-14.848-4.1-4.1-9.898-4.95-14.848 0-4.95 4.95-4.1 10.747 0 14.848 4.1 4.1 9.898 4.95 14.848 0z" fill="url(#nbjd448pzc)"/>
    <path d="M19.423 19.424c4.95-4.95 4.1-10.747 0-14.848-4.1-4.1-9.898-4.95-14.848 0-4.95 4.95-4.1 10.747 0 14.848 4.1 4.1 9.898 4.95 14.848 0z" fill="url(#291n8q8qtd)" fill-opacity=".6"/>
    <path d="M19.423 19.424c4.95-4.95 4.1-10.747 0-14.848-4.1-4.1-9.898-4.95-14.848 0-4.95 4.95-4.1 10.747 0 14.848 4.1 4.1 9.898 4.95 14.848 0z" fill="url(#b5ri9kdlme)"/>
    <path d="M19.423 19.424c4.95-4.95 4.1-10.747 0-14.848-4.1-4.1-9.898-4.95-14.848 0-4.95 4.95-4.1 10.747 0 14.848 4.1 4.1 9.898 4.95 14.848 0z" fill="url(#i1f9975gof)"/>
    <path d="M19.423 19.424c4.95-4.95 4.1-10.747 0-14.848-4.1-4.1-9.898-4.95-14.848 0-4.95 4.95-4.1 10.747 0 14.848 4.1 4.1 9.898 4.95 14.848 0z" fill="url(#uu6y7sqvcg)"/>
    <path d="M19.423 19.424c4.95-4.95 4.1-10.747 0-14.848-4.1-4.1-9.898-4.95-14.848 0-4.95 4.95-4.1 10.747 0 14.848 4.1 4.1 9.898 4.95 14.848 0z" fill="url(#4qgro4zowh)"/>
    <g filter="url(#m3ya5aqjhi)" fill-opacity=".6">
        <path d="M7.638 14.588a.75.75 0 0 1-1.423-.474l.586-1.756 1.718-1.719a.75.75 0 0 1 .18.767l-1.06 3.182z" fill="url(#k2fo1k1c6j)"/>
        <path d="M4.57 11.52a.75.75 0 1 0 .475 1.424l1.755-.586 1.719-1.719a.75.75 0 0 0-.766-.18l-3.182 1.062v-.001z" fill="url(#b6w5sj85qk)"/>
    </g>
    <path d="M7.406 14.356a.75.75 0 0 1-1.423-.474l.585-1.755 1.719-1.72a.75.75 0 0 1 .18.767l-1.06 3.181z" fill="url(#e2l6tnw6pl)"/>
    <path d="M4.338 11.288a.75.75 0 0 0 .475 1.424l1.755-.585 1.719-1.72a.75.75 0 0 0-.767-.18l-3.182 1.061z" fill="url(#ld2k4bu9nm)"/>
    <g filter="url(#jaoeq5k1jn)">
        <path d="M14.273 7.953a.75.75 0 1 0-.474-1.423l-1.755.585-1.718 1.719a.75.75 0 0 0 .765.18l3.183-1.061h-.001z" fill="url(#32wix3qeao)"/>
        <path d="M11.205 4.885a.75.75 0 0 1 1.424.474l-.585 1.755-1.719 1.72a.75.75 0 0 1-.18-.767l1.061-3.182z" fill="url(#f9s7tlqvop)"/>
    </g>
    <path d="M14.347 7.414a.75.75 0 0 0-.474-1.423l-1.755.585L10.4 8.295a.75.75 0 0 0 .767.18l3.181-1.061z" fill="url(#8lujkflbyq)"/>
    <path d="M11.28 4.346a.75.75 0 1 1 1.424.475l-.585 1.755-1.72 1.719a.75.75 0 0 1-.18-.767l1.061-3.182z" fill="url(#r3l0r2o97r)"/>
    <path d="M17.303 17.303c-5.303 5.303-10.606 0-10.606 0L17.303 6.697s5.303 5.303 0 10.606z" fill="url(#0qj9dq6kjs)"/>
    <path d="m16.773 8.818-7.955 7.955a1.125 1.125 0 0 1-1.59 0l9.545-9.546a1.125 1.125 0 0 1 0 1.59z" fill="url(#0srjsp36tt)"/>
    <path fill-rule="evenodd" clip-rule="evenodd" d="M8.056 21.91a1.592 1.592 0 0 0 1.292-1.563v-3.574a1.59 1.59 0 1 0-3.182 0v3.574c0 .174.028.342.08.5.583.416 1.187.772 1.81 1.063z" fill="url(#5afozszm8u)"/>
    <path fill-rule="evenodd" clip-rule="evenodd" d="M20.485 5.769H17.17a1.59 1.59 0 1 0 0 3.181h3.575c.526 0 .988-.254 1.277-.642a11.564 11.564 0 0 0-1.537-2.539z" fill="url(#agfj4g81zv)"/>
    <path d="M8.287 16.773v3.574a1.591 1.591 0 0 1-3.181 0v-3.574a1.59 1.59 0 1 1 3.181 0z" fill="url(#1bvov983ow)"/>
    <path d="M16.905 8.155h3.574a1.591 1.591 0 0 0 0-3.182h-3.573a1.59 1.59 0 1 0 0 3.182h-.001z" fill="url(#0uvhdtzabx)"/>
    <defs>
        <radialGradient id="927xb4oeda" cx="0" cy="0" r="1" gradientUnits="userSpaceOnUse" gradientTransform="rotate(87.839 4.976 8.544) scale(28.1275)">
            <stop stop-color="#FFF478"/>
            <stop offset=".475" stop-color="#FFB02E"/>
            <stop offset="1" stop-color="#F70A8D"/>
        </radialGradient>
        <radialGradient id="bycdixx3wb" cx="0" cy="0" r="1" gradientUnits="userSpaceOnUse" gradientTransform="rotate(86.878 4.947 8.661) scale(29.2115)">
            <stop stop-color="#FFF478"/>
            <stop offset=".475" stop-color="#FFB02E"/>
            <stop offset="1" stop-color="#F70A8D"/>
        </radialGradient>
        <radialGradient id="nbjd448pzc" cx="0" cy="0" r="1" gradientUnits="userSpaceOnUse" gradientTransform="matrix(7.42461 11.1369 -14.26433 9.50957 10.144 10.144)">
            <stop offset=".788" stop-color="#F59639" stop-opacity="0"/>
            <stop offset=".973" stop-color="#FF7DCE"/>
        </radialGradient>
        <radialGradient id="291n8q8qtd" cx="0" cy="0" r="1" gradientUnits="userSpaceOnUse" gradientTransform="matrix(0 30.7591 -30.7592 0 12 9.879)">
            <stop offset=".315" stop-opacity="0"/>
            <stop offset="1"/>
        </radialGradient>
        <radialGradient id="b5ri9kdlme" cx="0" cy="0" r="1" gradientUnits="userSpaceOnUse" gradientTransform="rotate(32.692 -15.097 27.627) scale(21.1102)">
            <stop offset=".508" stop-color="#7D6133" stop-opacity="0"/>
            <stop offset="1" stop-color="#715B32"/>
        </radialGradient>
        <radialGradient id="i1f9975gof" cx="0" cy="0" r="1" gradientUnits="userSpaceOnUse" gradientTransform="matrix(9.81108 1.85615 -1.34543 7.11159 12.53 12)">
            <stop stop-color="#FFB849"/>
            <stop offset="1" stop-color="#FFB847" stop-opacity="0"/>
        </radialGradient>
        <radialGradient id="uu6y7sqvcg" cx="0" cy="0" r="1" gradientUnits="userSpaceOnUse" gradientTransform="rotate(-35.134 24.582 -19.06) scale(8.75445)">
            <stop stop-color="#FFA64B"/>
            <stop offset=".9" stop-color="#FFAE46" stop-opacity="0"/>
        </radialGradient>
        <radialGradient id="4qgro4zowh" cx="0" cy="0" r="1" gradientUnits="userSpaceOnUse" gradientTransform="rotate(-1.029 600.371 -677.479) scale(44.2897)">
            <stop offset=".185" stop-opacity="0"/>
            <stop offset="1" stop-opacity=".4"/>
        </radialGradient>
        <radialGradient id="k2fo1k1c6j" cx="0" cy="0" r="1" gradientUnits="userSpaceOnUse" gradientTransform="matrix(2.38647 5.17073 -6.75814 3.11912 4.691 11.287)">
            <stop stop-color="#9F5E0F"/>
            <stop offset=".889" stop-color="#9F5E0F" stop-opacity="0"/>
        </radialGradient>
        <radialGradient id="b6w5sj85qk" cx="0" cy="0" r="1" gradientUnits="userSpaceOnUse" gradientTransform="matrix(2.38647 5.17073 -6.75814 3.11912 4.692 11.287)">
            <stop stop-color="#9F5E0F"/>
            <stop offset=".889" stop-color="#9F5E0F" stop-opacity="0"/>
        </radialGradient>
        <radialGradient id="32wix3qeao" cx="0" cy="0" r="1" gradientUnits="userSpaceOnUse" gradientTransform="rotate(179.005 8.696 3.055) scale(10.0198 13.0958)">
            <stop stop-color="#E9830A"/>
            <stop offset=".802" stop-color="#F08B13" stop-opacity="0"/>
        </radialGradient>
        <radialGradient id="f9s7tlqvop" cx="0" cy="0" r="1" gradientUnits="userSpaceOnUse" gradientTransform="rotate(179.005 8.696 3.055) scale(10.0198 13.0958)">
            <stop stop-color="#E9830A"/>
            <stop offset=".802" stop-color="#F08B13" stop-opacity="0"/>
        </radialGradient>
        <radialGradient id="0qj9dq6kjs" cx="0" cy="0" r="1" gradientUnits="userSpaceOnUse" gradientTransform="rotate(-135 14.131 6.009) scale(12.7279 25.4558)">
            <stop offset=".051" stop-color="#F70A8D"/>
            <stop offset="1" stop-color="#89029C"/>
        </radialGradient>
        <radialGradient id="5afozszm8u" cx="0" cy="0" r="1" gradientUnits="userSpaceOnUse" gradientTransform="matrix(.7955 -3.44715 2.23765 .51638 7.492 20.22)">
            <stop stop-color="#6D4534"/>
            <stop offset="1" stop-color="#FF822D" stop-opacity="0"/>
        </radialGradient>
        <radialGradient id="agfj4g81zv" cx="0" cy="0" r="1" gradientUnits="userSpaceOnUse" gradientTransform="matrix(3.97748 -.7955 .51638 2.58189 17.303 7.227)">
            <stop stop-color="#6D4534"/>
            <stop offset="1" stop-color="#FF822D" stop-opacity="0"/>
        </radialGradient>
        <radialGradient id="1bvov983ow" cx="0" cy="0" r="1" gradientUnits="userSpaceOnUse" gradientTransform="rotate(102.529 -2.689 10.755) scale(4.8894 2.22611)">
            <stop stop-color="#508FFF"/>
            <stop offset="1" stop-color="#3D5BF1"/>
        </radialGradient>
        <radialGradient id="0uvhdtzabx" cx="0" cy="0" r="1" gradientUnits="userSpaceOnUse" gradientTransform="matrix(3.44715 .26516 -.12073 1.56945 17.833 5.636)">
            <stop stop-color="#5092FF"/>
            <stop offset="1" stop-color="#3F5FFF"/>
        </radialGradient>
        <linearGradient id="e2l6tnw6pl" x1="8.453" y1="14.203" x2="4.251" y2="12.736" gradientUnits="userSpaceOnUse">
            <stop offset=".25" stop-color="#482641"/>
            <stop offset=".406" stop-color="#503A4A"/>
            <stop offset=".511" stop-color="#482641"/>
        </linearGradient>
        <linearGradient id="ld2k4bu9nm" x1="5.635" y1="13.208" x2="4.417" y2="9.455" gradientUnits="userSpaceOnUse">
            <stop offset=".25" stop-color="#482641"/>
            <stop offset=".406" stop-color="#503A4A"/>
            <stop offset=".511" stop-color="#482641"/>
        </linearGradient>
        <linearGradient id="8lujkflbyq" x1="14.194" y1="8.461" x2="12.728" y2="4.259" gradientUnits="userSpaceOnUse">
            <stop offset=".25" stop-color="#482641"/>
            <stop offset=".406" stop-color="#503A4A"/>
            <stop offset=".511" stop-color="#482641"/>
        </linearGradient>
        <linearGradient id="r3l0r2o97r" x1="13.201" y1="5.643" x2="9.447" y2="4.425" gradientUnits="userSpaceOnUse">
            <stop offset=".25" stop-color="#482641"/>
            <stop offset=".406" stop-color="#503A4A"/>
            <stop offset=".511" stop-color="#482641"/>
        </linearGradient>
        <linearGradient id="0srjsp36tt" x1="12" y1="12" x2="12.796" y2="12.796" gradientUnits="userSpaceOnUse">
            <stop stop-color="#ECCDFF"/>
            <stop offset="1" stop-color="#fff"/>
        </linearGradient>
        <filter id="m3ya5aqjhi" x="3.558" y="9.921" width="5.68" height="5.664" filterUnits="userSpaceOnUse" color-interpolation-filters="sRGB">
            <feFlood flood-opacity="0" result="BackgroundImageFix"/>
            <feBlend in="SourceGraphic" in2="BackgroundImageFix" result="shape"/>
            <feGaussianBlur stdDeviation=".25" result="effect1_foregroundBlur_202_27886"/>
        </filter>
        <filter id="jaoeq5k1jn" x="9.607" y="3.872" width="5.679" height="5.68" filterUnits="userSpaceOnUse" color-interpolation-filters="sRGB">
            <feFlood flood-opacity="0" result="BackgroundImageFix"/>
            <feBlend in="SourceGraphic" in2="BackgroundImageFix" result="shape"/>
            <feGaussianBlur stdDeviation=".25" result="effect1_foregroundBlur_202_27886"/>
        </filter>
    </defs>
</svg>
