<svg width="28" height="28" viewBox="0 0 28 28" fill="none" xmlns="http://www.w3.org/2000/svg">
<path d="M23.3332 12.25C23.0238 12.25 22.727 12.3729 22.5082 12.5917C22.2894 12.8105 22.1665 13.1073 22.1665 13.4167V21.5834C22.1665 21.8928 22.0436 22.1895 21.8248 22.4083C21.606 22.6271 21.3093 22.75 20.9998 22.75H4.6665C4.35708 22.75 4.06034 22.6271 3.84155 22.4083C3.62275 22.1895 3.49984 21.8928 3.49984 21.5834V12.25C3.49984 11.9406 3.62275 11.6439 3.84155 11.4251C4.06034 11.2063 4.35708 11.0834 4.6665 11.0834H6.99984C7.25425 11.0966 7.50601 11.0263 7.71668 10.883C7.92734 10.7398 8.08533 10.5315 8.1665 10.29L8.7965 8.37669C8.87477 8.14496 9.02389 7.9437 9.22277 7.80134C9.42166 7.65898 9.66025 7.58272 9.90484 7.58335H16.3332C16.6426 7.58335 16.9393 7.46044 17.1581 7.24164C17.3769 7.02285 17.4998 6.72611 17.4998 6.41669C17.4998 6.10727 17.3769 5.81052 17.1581 5.59173C16.9393 5.37294 16.6426 5.25002 16.3332 5.25002H9.8465C9.11331 5.25139 8.39906 5.48298 7.80457 5.91211C7.21007 6.34124 6.76535 6.94622 6.53317 7.64169L6.15984 8.80835H4.6665C3.73825 8.80835 2.84801 9.1771 2.19163 9.83348C1.53525 10.4899 1.1665 11.3801 1.1665 12.3084V21.6417C1.1665 22.5699 1.53525 23.4602 2.19163 24.1166C2.84801 24.7729 3.73825 25.1417 4.6665 25.1417H20.9998C21.9281 25.1417 22.8183 24.7729 23.4747 24.1166C24.1311 23.4602 24.4998 22.5699 24.4998 21.6417V13.475C24.5078 13.317 24.4834 13.159 24.4284 13.0106C24.3733 12.8623 24.2886 12.7267 24.1795 12.6121C24.0703 12.4975 23.939 12.4063 23.7935 12.3441C23.648 12.2818 23.4914 12.2498 23.3332 12.25V12.25ZM12.8332 11.0834C11.9102 11.0834 11.0079 11.357 10.2405 11.8698C9.47308 12.3826 8.87494 13.1114 8.52173 13.9642C8.16852 14.8169 8.07611 15.7552 8.25617 16.6604C8.43624 17.5657 8.88069 18.3972 9.53334 19.0499C10.186 19.7025 11.0175 20.147 11.9227 20.327C12.828 20.5071 13.7663 20.4147 14.619 20.0615C15.4717 19.7083 16.2006 19.1101 16.7134 18.3427C17.2261 17.5753 17.4998 16.673 17.4998 15.75C17.4998 14.5123 17.0082 13.3254 16.133 12.4502C15.2578 11.575 14.0708 11.0834 12.8332 11.0834V11.0834ZM12.8332 18.0834C12.3717 18.0834 11.9206 17.9465 11.5368 17.6901C11.1531 17.4337 10.8541 17.0693 10.6775 16.6429C10.5008 16.2166 10.4546 15.7474 10.5447 15.2948C10.6347 14.8422 10.8569 14.4264 11.1833 14.1001C11.5096 13.7738 11.9253 13.5516 12.378 13.4615C12.8306 13.3715 13.2997 13.4177 13.7261 13.5943C14.1525 13.7709 14.5169 14.07 14.7733 14.4537C15.0297 14.8374 15.1665 15.2885 15.1665 15.75C15.1665 16.3689 14.9207 16.9624 14.4831 17.3999C14.0455 17.8375 13.452 18.0834 12.8332 18.0834ZM25.6665 5.25002H24.4998V4.08335C24.4998 3.77393 24.3769 3.47719 24.1581 3.2584C23.9393 3.0396 23.6426 2.91669 23.3332 2.91669C23.0238 2.91669 22.727 3.0396 22.5082 3.2584C22.2894 3.47719 22.1665 3.77393 22.1665 4.08335V5.25002H20.9998C20.6904 5.25002 20.3937 5.37294 20.1749 5.59173C19.9561 5.81052 19.8332 6.10727 19.8332 6.41669C19.8332 6.72611 19.9561 7.02285 20.1749 7.24164C20.3937 7.46044 20.6904 7.58335 20.9998 7.58335H22.1665V8.75002C22.1665 9.05944 22.2894 9.35619 22.5082 9.57498C22.727 9.79377 23.0238 9.91669 23.3332 9.91669C23.6426 9.91669 23.9393 9.79377 24.1581 9.57498C24.3769 9.35619 24.4998 9.05944 24.4998 8.75002V7.58335H25.6665C25.9759 7.58335 26.2727 7.46044 26.4915 7.24164C26.7103 7.02285 26.8332 6.72611 26.8332 6.41669C26.8332 6.10727 26.7103 5.81052 26.4915 5.59173C26.2727 5.37294 25.9759 5.25002 25.6665 5.25002Z" fill="#0086E7"/>
</svg>
